<?xml version="1.0" encoding="UTF-8" standalone="no"?>
<!-- Created with Inkscape (http://www.inkscape.org/) -->

<svg
   xmlns:dc="http://purl.org/dc/elements/1.1/"
   xmlns:cc="http://creativecommons.org/ns#"
   xmlns:rdf="http://www.w3.org/1999/02/22-rdf-syntax-ns#"
   xmlns:svg="http://www.w3.org/2000/svg"
   xmlns="http://www.w3.org/2000/svg"
   xmlns:sodipodi="http://sodipodi.sourceforge.net/DTD/sodipodi-0.dtd"
   xmlns:inkscape="http://www.inkscape.org/namespaces/inkscape"
   width="542.12598"
   height="542.12598"
   id="svg2"
   version="1.1"
   inkscape:version="0.48.4 r9939"
   sodipodi:docname="plane_001.svg">
  <sodipodi:namedview
     id="base"
     pagecolor="#ffffff"
     bordercolor="#666666"
     borderopacity="1.0"
     inkscape:pageopacity="0.0"
     inkscape:pageshadow="2"
     inkscape:zoom="0.97394337"
     inkscape:cx="271.06299"
     inkscape:cy="271.06299"
     inkscape:document-units="px"
     inkscape:current-layer="layer2"
     showgrid="false"
     units="mm"
     inkscape:window-width="1366"
     inkscape:window-height="715"
     inkscape:window-x="-8"
     inkscape:window-y="-8"
     inkscape:window-maximized="1"
     showguides="true"
     inkscape:guide-bbox="true">
    <sodipodi:guide
       orientation="0,1"
       position="218.69855,371.68485"
       id="guide3019" />
    <sodipodi:guide
       orientation="1,0"
       position="271.06299,571.90184"
       id="guide3021" />
  </sodipodi:namedview>
  <defs
     id="defs4" />
  <metadata
     id="metadata7">
    <rdf:RDF>
      <cc:Work
         rdf:about="">
        <dc:format>image/svg+xml</dc:format>
        <dc:type
           rdf:resource="http://purl.org/dc/dcmitype/StillImage" />
        <dc:title></dc:title>
      </cc:Work>
    </rdf:RDF>
  </metadata>
  <g
     inkscape:groupmode="layer"
     id="layer5"
     inkscape:label="SizingCircle"
     transform="translate(0,-42.519677)"
     style="display:inline">
    <path
       sodipodi:type="arc"
       style="fill:none;stroke:#000000;stroke-width:0.1;stroke-linejoin:round;stroke-miterlimit:4;stroke-opacity:1;stroke-dasharray:none;display:inline"
       id="path2991"
       sodipodi:cx="317.6897"
       sodipodi:cy="318.89764"
       sodipodi:rx="317.6897"
       sodipodi:ry="317.6897"
       d="m 635.37939,318.89764 c 0,175.45518 -142.23452,317.6897 -317.68969,317.6897 C 142.23452,636.58734 0,494.35282 0,318.89764 0,143.44247 142.23452,1.2079468 317.6897,1.2079468 c 175.45517,0 317.68969,142.2345232 317.68969,317.6896932 z"
       transform="matrix(0.85374518,0,0,0.85374518,0.05840522,40.203267)" />
  </g>
  <g
     inkscape:groupmode="layer"
     id="layer1"
     inkscape:label="WingsAndHTP"
     transform="translate(0,-95.669296)"
     style="display:inline">
    <path
       id="path2995"
       style="color:#000000;fill:#e40000;fill-opacity:1;fill-rule:nonzero;stroke:#5d0000;stroke-width:1.11948335;stroke-linecap:butt;stroke-linejoin:miter;stroke-miterlimit:4;stroke-opacity:1;stroke-dasharray:none;stroke-dashoffset:0;marker:none;visibility:visible;display:inline;overflow:visible;enable-background:accumulate"
       d="m 357.5326,594.48177 c 11.50553,0.39036 5.47047,-20.36865 -4.74335,-23.29038 l -73.9271,-20.22586 4.6634,-160.95725 c 0.38742,-8.57978 37.85534,-12.28474 61.98878,-12.28474 l 164.41838,0 c 14.66432,0 -3.89986,-26.41687 -22.2511,-30.19223 l -216.37323,-44.0165 -215.831247,44.0165 c -18.351248,3.77536 -36.915428,30.19223 -22.251109,30.19223 l 164.445006,0 c 24.13347,0 61.03274,3.70496 61.42016,12.28474 l 4.66341,160.95725 -73.38512,20.22586 c -10.21381,2.92173 -16.22222,23.68074 -4.71669,23.29038 l 85.65559,-3.28375 z"
       inkscape:connector-curvature="0"
       sodipodi:nodetypes="ccccsscccsscccccc" />
  </g>
  <g
     inkscape:groupmode="layer"
     id="layer6"
     inkscape:label="WingReinforce"
     transform="translate(0,-42.519677)"
     style="display:inline">
    <path
       id="path2995-1"
       style="color:#000000;fill:#000080;fill-opacity:1;fill-rule:nonzero;stroke:#5d0000;stroke-width:1.11948335;stroke-linecap:butt;stroke-linejoin:miter;stroke-miterlimit:4;stroke-opacity:1;stroke-dasharray:none;stroke-dashoffset:0;marker:none;visibility:visible;display:inline;overflow:visible;enable-background:accumulate"
       d="m 345.51433,278.34468 82.20919,12.07059 41.1046,6.68963 c 40.00631,6.51089 41.10459,25.58212 41.10459,25.58212 14.25357,-2.04212 -3.89986,-26.41688 -22.2511,-30.19223 L 271.30838,248.47828 55.477133,292.49479 c -18.351248,3.77535 -36.667368,30.14536 -22.251109,30.19223 0,0 3.508071,-19.46332 41.111254,-25.58212 l 41.111262,-6.68963 82.22249,-12.07059 c 31.86686,-4.67818 57.98241,-11.64721 65.13934,44.88254 7.15694,56.52973 5.40065,210.70623 9.39073,210.70623 3.99009,0 -1.54886,-154.17089 6.73537,-210.70623 8.28423,-56.53533 29.66524,-50.30233 66.57786,-44.88254 z"
       inkscape:connector-curvature="0"
       sodipodi:nodetypes="scsscccsscsszss" />
  </g>
  <g
     inkscape:groupmode="layer"
     id="layer2"
     inkscape:label="Fuselage"
     transform="translate(0,-42.519677)"
     style="display:inline">
    <path
       style="color:#000000;fill:#e40000;fill-opacity:1;fill-rule:nonzero;stroke:#5d0000;stroke-width:0.87996846;stroke-linecap:butt;stroke-linejoin:miter;stroke-miterlimit:4;stroke-opacity:1;stroke-dasharray:none;stroke-dashoffset:0;marker:none;visibility:visible;display:inline;overflow:visible;enable-background:accumulate"
       d="m 271.11527,63.227802 c 7.0367,-0.188414 18.43561,31.619802 18.43052,53.526258 -0.01,41.31596 0.4021,81.43978 -4.1067,123.27054 -2.76039,25.60968 -14.32382,75.38374 -14.32382,75.38374 z"
       id="path3009"
       inkscape:connector-curvature="0"
       sodipodi:nodetypes="csscc" />
  </g>
  <g
     inkscape:groupmode="layer"
     id="layer3"
     inkscape:label="Spine"
     transform="translate(0,-42.519677)"
     style="display:inline">
    <path
       style="color:#000000;fill:#e40000;fill-opacity:1;fill-rule:nonzero;stroke:#5d0000;stroke-width:1.19338536;stroke-linecap:butt;stroke-linejoin:miter;stroke-miterlimit:4;stroke-opacity:1;stroke-dasharray:none;stroke-dashoffset:0;marker:none;visibility:visible;display:inline;overflow:visible;enable-background:accumulate"
       d="m 271.27198,91.071528 25.60941,-19.33151 3.11752,250.196572 c -0.0577,40.41552 -19.16411,160.898 -20.33825,221.39308 l -8.38868,3.81174 z"
       id="path3013"
       inkscape:connector-curvature="0"
       sodipodi:nodetypes="cccccc" />
  </g>
  <g
     inkscape:groupmode="layer"
     id="layer7"
     inkscape:label="LauncherSlot">
    <path
       style="color:#000000;fill:#00a4e4;fill-opacity:1;fill-rule:nonzero;stroke:#5d0000;stroke-width:1.31281173000000000;stroke-linecap:butt;stroke-linejoin:miter;stroke-miterlimit:4;stroke-opacity:1;stroke-dasharray:none;stroke-dashoffset:0;marker:none;visibility:visible;display:inline;overflow:visible;enable-background:accumulate"
       d="m 271.06299,55.641108 c 0,0 6.40631,-3.894711 9.15911,2.129347 2.7528,6.024058 -9.15911,43.864555 -9.15911,43.864555 z"
       id="path3023"
       inkscape:connector-curvature="0"
       sodipodi:nodetypes="czcc" />
  </g>
  <g
     inkscape:groupmode="layer"
     id="layer4"
     inkscape:label="VTP"
     transform="translate(0,-42.519677)"
     style="display:inline">
    <path
       style="color:#000000;fill:#e40000;fill-opacity:1;fill-rule:nonzero;stroke:#5d0000;stroke-width:1.25726485;stroke-linecap:butt;stroke-linejoin:miter;stroke-miterlimit:4;stroke-opacity:1;stroke-dasharray:none;stroke-dashoffset:0;marker:none;visibility:visible;display:inline;overflow:visible;enable-background:accumulate"
       d="m 273.46443,468.0889 77.47579,43.14116 c 17.3387,9.65476 24.51557,37.82246 9.63235,35.76279 l -87.10814,-12.05484 z"
       id="path3015"
       inkscape:connector-curvature="0"
       sodipodi:nodetypes="csscc" />
  </g>
</svg>
