999
Inkscape export via "Better DXF Output" (bob@bobcookdev.com)
  0
SECTION
  2
HEADER
  9
$ACADVER
  1
AC1014
  9
$HANDSEED
  5
FFFF
  0
ENDSEC
  0
SECTION
  2
TABLES
  0
TABLE
  2
VPORT
  5
8
330
0
100
AcDbSymbolTable
 70
     4
  0
VPORT
  5
2E
330
8
100
AcDbSymbolTableRecord
100
AcDbViewportTableRecord
  2
*ACTIVE
 70
     0
 10
0.0
 20
0.0
 11
1.0
 21
1.0
 12
4.25
 22
5.5
 13
0.0
 23
0.0
 14
10.0
 24
10.0
 15
10.0
 25
10.0
 16
0.0
 26
0.0
 36
1.0
 17
0.0
 27
0.0
 37
0.0
 40
11
 41
1.24
 42
50.0
 43
0.0
 44
0.0
 50
0.0
 51
0.0
 71
     0
 72
   100
 73
     1
 74
     3
 75
     0
 76
     0
 77
     0
 78
     0
  0
ENDTAB
  0
TABLE
  2
LTYPE
  5
5
330
0
100
AcDbSymbolTable
 70
     1
  0
LTYPE
  5
14
330
5
100
AcDbSymbolTableRecord
100
AcDbLinetypeTableRecord
  2
BYBLOCK
 70
     0
  3

 72
    65
 73
     0
 40
0.0
  0
LTYPE
  5
15
330
5
100
AcDbSymbolTableRecord
100
AcDbLinetypeTableRecord
  2
BYLAYER
 70
     0
  3

 72
    65
 73
     0
 40
0.0
  0
LTYPE
  5
16
330
5
100
AcDbSymbolTableRecord
100
AcDbLinetypeTableRecord
  2
CONTINUOUS
 70
     0
  3
Solid line
 72
    65
 73
     0
 40
0.0
  0
ENDTAB
  0
TABLE
  2
LAYER
  5
2
330
0
100
AcDbSymbolTable
 70
1
  0
LAYER
  5
10
330
2
100
AcDbSymbolTableRecord
100
AcDbLayerTableRecord
  2
0
 70
     0
 62
     7
  6
CONTINUOUS
  0
ENDTAB
  0
TABLE
  2
STYLE
  5
3
330
0
100
AcDbSymbolTable
 70
     1
  0
STYLE
  5
11
330
3
100
AcDbSymbolTableRecord
100
AcDbTextStyleTableRecord
  2
STANDARD
 70
     0
 40
0.0
 41
1.0
 50
0.0
 71
     0
 42
2.5
  3
txt
  4

  0
ENDTAB
  0
TABLE
  2
VIEW
  5
6
330
0
100
AcDbSymbolTable
 70
     0
  0
ENDTAB
  0
TABLE
  2
UCS
  5
7
330
0
100
AcDbSymbolTable
 70
     0
  0
ENDTAB
  0
TABLE
  2
APPID
  5
9
330
0
100
AcDbSymbolTable
 70
     2
  0
APPID
  5
12
330
9
100
AcDbSymbolTableRecord
100
AcDbRegAppTableRecord
  2
ACAD
 70
     0
  0
ENDTAB
  0
TABLE
  2
DIMSTYLE
  5
A
330
0
100
AcDbSymbolTable
 70
     1
  0
DIMSTYLE
105
27
330
A
100
AcDbSymbolTableRecord
100
AcDbDimStyleTableRecord
  2
ISO-25
 70
     0
  3

  4

  5

  6

  7

 40
1.0
 41
2.5
 42
0.625
 43
3.75
 44
1.25
 45
0.0
 46
0.0
 47
0.0
 48
0.0
140
2.5
141
2.5
142
0.0
143
0.03937007874016
144
1.0
145
0.0
146
1.0
147
0.625
 71
     0
 72
     0
 73
     0
 74
     0
 75
     0
 76
     0
 77
     1
 78
     8
170
     0
171
     3
172
     1
173
     0
174
     0
175
     0
176
     0
177
     0
178
     0
270
     2
271
     2
272
     2
273
     2
274
     3
340
11
275
     0
280
     0
281
     0
282
     0
283
     0
284
     8
285
     0
286
     0
287
     3
288
     0
  0
ENDTAB
  0
TABLE
  2
BLOCK_RECORD
  5
1
330
0
100
AcDbSymbolTable
 70
     1
  0
BLOCK_RECORD
  5
1F
330
1
100
AcDbSymbolTableRecord
100
AcDbBlockTableRecord
  2
*MODEL_SPACE
  0
BLOCK_RECORD
  5
1B
330
1
100
AcDbSymbolTableRecord
100
AcDbBlockTableRecord
  2
*PAPER_SPACE
  0
ENDTAB
  0
ENDSEC
  0
SECTION
  2
BLOCKS
  0
BLOCK
  5
20
330
1F
100
AcDbEntity
  8
0
100
AcDbBlockBegin
  2
*MODEL_SPACE
 70
     0
 10
0.0
 20
0.0
 30
0.0
  3
*MODEL_SPACE
  1

  0
ENDBLK
  5
21
330
1F
100
AcDbEntity
  8
0
100
AcDbBlockEnd
  0
BLOCK
  5
1C
330
1B
100
AcDbEntity
 67
     1
  8
0
100
AcDbBlockBegin
  2
*PAPER_SPACE
  1

  0
ENDBLK
  5
1D
330
1B
100
AcDbEntity
 67
     1
  8
0
100
AcDbBlockEnd
  0
ENDSEC
  0
SECTION
  2
ENTITIES
0
LINE
8
SizingCircle
62
4
5
100
100
AcDbEntity
100
AcDbLine
10
153.108518
20
64.816677
30
0.0
11
152.939754
21
59.715107
31
0.0
0
LINE
8
SizingCircle
62
4
5
101
100
AcDbEntity
100
AcDbLine
10
152.939754
20
59.715107
30
0.0
11
152.437008
21
54.676131
31
0.0
0
LINE
8
SizingCircle
62
4
5
102
100
AcDbEntity
100
AcDbLine
10
152.437008
20
54.676131
30
0.0
11
151.608334
21
49.713699
31
0.0
0
LINE
8
SizingCircle
62
4
5
103
100
AcDbEntity
100
AcDbLine
10
151.608334
20
49.713699
30
0.0
11
150.461781
21
44.841761
31
0.0
0
LINE
8
SizingCircle
62
4
5
104
100
AcDbEntity
100
AcDbLine
10
150.461781
20
44.841761
30
0.0
11
149.005403
21
40.074265
31
0.0
0
LINE
8
SizingCircle
62
4
5
105
100
AcDbEntity
100
AcDbLine
10
149.005403
20
40.074265
30
0.0
11
147.247249
21
35.425161
31
0.0
0
LINE
8
SizingCircle
62
4
5
106
100
AcDbEntity
100
AcDbLine
10
147.247249
20
35.425161
30
0.0
11
145.195372
21
30.908399
31
0.0
0
LINE
8
SizingCircle
62
4
5
107
100
AcDbEntity
100
AcDbLine
10
145.195372
20
30.908399
30
0.0
11
142.857824
21
26.537928
31
0.0
0
LINE
8
SizingCircle
62
4
5
108
100
AcDbEntity
100
AcDbLine
10
142.857824
20
26.537928
30
0.0
11
140.242655
21
22.327697
31
0.0
0
LINE
8
SizingCircle
62
4
5
109
100
AcDbEntity
100
AcDbLine
10
140.242655
20
22.327697
30
0.0
11
137.357917
21
18.291656
31
0.0
0
LINE
8
SizingCircle
62
4
5
10a
100
AcDbEntity
100
AcDbLine
10
137.357917
20
18.291656
30
0.0
11
134.211662
21
14.443754
31
0.0
0
LINE
8
SizingCircle
62
4
5
10b
100
AcDbEntity
100
AcDbLine
10
134.211662
20
14.443754
30
0.0
11
130.811941
21
10.797941
31
0.0
0
LINE
8
SizingCircle
62
4
5
10c
100
AcDbEntity
100
AcDbLine
10
130.811941
20
10.797941
30
0.0
11
127.166806
21
7.368166
31
0.0
0
LINE
8
SizingCircle
62
4
5
10d
100
AcDbEntity
100
AcDbLine
10
127.166806
20
7.368166
30
0.0
11
123.284308
21
4.168378
31
0.0
0
LINE
8
SizingCircle
62
4
5
10e
100
AcDbEntity
100
AcDbLine
10
123.284308
20
4.168378
30
0.0
11
119.172499
21
1.212527
31
0.0
0
LINE
8
SizingCircle
62
4
5
10f
100
AcDbEntity
100
AcDbLine
10
119.172499
20
1.212527
30
0.0
11
114.839430
21
-1.485437
31
0.0
0
LINE
8
SizingCircle
62
4
5
110
100
AcDbEntity
100
AcDbLine
10
114.839430
20
-1.485437
30
0.0
11
110.336674
21
-3.889535
31
0.0
0
LINE
8
SizingCircle
62
4
5
111
100
AcDbEntity
100
AcDbLine
10
110.336674
20
-3.889535
30
0.0
11
105.721175
21
-5.973087
31
0.0
0
LINE
8
SizingCircle
62
4
5
112
100
AcDbEntity
100
AcDbLine
10
105.721175
20
-5.973087
30
0.0
11
101.009037
21
-7.736092
31
0.0
0
LINE
8
SizingCircle
62
4
5
113
100
AcDbEntity
100
AcDbLine
10
101.009037
20
-7.736092
30
0.0
11
96.216367
21
-9.178551
31
0.0
0
LINE
8
SizingCircle
62
4
5
114
100
AcDbEntity
100
AcDbLine
10
96.216367
20
-9.178551
30
0.0
11
91.359273
21
-10.300464
31
0.0
0
LINE
8
SizingCircle
62
4
5
115
100
AcDbEntity
100
AcDbLine
10
91.359273
20
-10.300464
30
0.0
11
86.453859
21
-11.101830
31
0.0
0
LINE
8
SizingCircle
62
4
5
116
100
AcDbEntity
100
AcDbLine
10
86.453859
20
-11.101830
30
0.0
11
81.516233
21
-11.582649
31
0.0
0
LINE
8
SizingCircle
62
4
5
117
100
AcDbEntity
100
AcDbLine
10
81.516233
20
-11.582649
30
0.0
11
76.562501
21
-11.742923
31
0.0
0
LINE
8
SizingCircle
62
4
5
118
100
AcDbEntity
100
AcDbLine
10
76.562501
20
-11.742923
30
0.0
11
71.608768
21
-11.582649
31
0.0
0
LINE
8
SizingCircle
62
4
5
119
100
AcDbEntity
100
AcDbLine
10
71.608768
20
-11.582649
30
0.0
11
66.671142
21
-11.101830
31
0.0
0
LINE
8
SizingCircle
62
4
5
11a
100
AcDbEntity
100
AcDbLine
10
66.671142
20
-11.101830
30
0.0
11
61.765729
21
-10.300464
31
0.0
0
LINE
8
SizingCircle
62
4
5
11b
100
AcDbEntity
100
AcDbLine
10
61.765729
20
-10.300464
30
0.0
11
56.908634
21
-9.178551
31
0.0
0
LINE
8
SizingCircle
62
4
5
11c
100
AcDbEntity
100
AcDbLine
10
56.908634
20
-9.178551
30
0.0
11
52.115965
21
-7.736092
31
0.0
0
LINE
8
SizingCircle
62
4
5
11d
100
AcDbEntity
100
AcDbLine
10
52.115965
20
-7.736092
30
0.0
11
47.403827
21
-5.973087
31
0.0
0
LINE
8
SizingCircle
62
4
5
11e
100
AcDbEntity
100
AcDbLine
10
47.403827
20
-5.973087
30
0.0
11
42.788327
21
-3.889535
31
0.0
0
LINE
8
SizingCircle
62
4
5
11f
100
AcDbEntity
100
AcDbLine
10
42.788327
20
-3.889535
30
0.0
11
38.285571
21
-1.485437
31
0.0
0
LINE
8
SizingCircle
62
4
5
120
100
AcDbEntity
100
AcDbLine
10
38.285571
20
-1.485437
30
0.0
11
33.952502
21
1.212527
31
0.0
0
LINE
8
SizingCircle
62
4
5
121
100
AcDbEntity
100
AcDbLine
10
33.952502
20
1.212527
30
0.0
11
29.840693
21
4.168378
31
0.0
0
LINE
8
SizingCircle
62
4
5
122
100
AcDbEntity
100
AcDbLine
10
29.840693
20
4.168378
30
0.0
11
25.958195
21
7.368166
31
0.0
0
LINE
8
SizingCircle
62
4
5
123
100
AcDbEntity
100
AcDbLine
10
25.958195
20
7.368166
30
0.0
11
22.313060
21
10.797941
31
0.0
0
LINE
8
SizingCircle
62
4
5
124
100
AcDbEntity
100
AcDbLine
10
22.313060
20
10.797941
30
0.0
11
18.913339
21
14.443754
31
0.0
0
LINE
8
SizingCircle
62
4
5
125
100
AcDbEntity
100
AcDbLine
10
18.913339
20
14.443754
30
0.0
11
15.767084
21
18.291656
31
0.0
0
LINE
8
SizingCircle
62
4
5
126
100
AcDbEntity
100
AcDbLine
10
15.767084
20
18.291656
30
0.0
11
12.882346
21
22.327697
31
0.0
0
LINE
8
SizingCircle
62
4
5
127
100
AcDbEntity
100
AcDbLine
10
12.882346
20
22.327697
30
0.0
11
10.267178
21
26.537928
31
0.0
0
LINE
8
SizingCircle
62
4
5
128
100
AcDbEntity
100
AcDbLine
10
10.267178
20
26.537928
30
0.0
11
7.929629
21
30.908399
31
0.0
0
LINE
8
SizingCircle
62
4
5
129
100
AcDbEntity
100
AcDbLine
10
7.929629
20
30.908399
30
0.0
11
5.877752
21
35.425161
31
0.0
0
LINE
8
SizingCircle
62
4
5
12a
100
AcDbEntity
100
AcDbLine
10
5.877752
20
35.425161
30
0.0
11
4.119599
21
40.074265
31
0.0
0
LINE
8
SizingCircle
62
4
5
12b
100
AcDbEntity
100
AcDbLine
10
4.119599
20
40.074265
30
0.0
11
2.663220
21
44.841761
31
0.0
0
LINE
8
SizingCircle
62
4
5
12c
100
AcDbEntity
100
AcDbLine
10
2.663220
20
44.841761
30
0.0
11
1.516667
21
49.713699
31
0.0
0
LINE
8
SizingCircle
62
4
5
12d
100
AcDbEntity
100
AcDbLine
10
1.516667
20
49.713699
30
0.0
11
0.687993
21
54.676131
31
0.0
0
LINE
8
SizingCircle
62
4
5
12e
100
AcDbEntity
100
AcDbLine
10
0.687993
20
54.676131
30
0.0
11
0.185248
21
59.715107
31
0.0
0
LINE
8
SizingCircle
62
4
5
12f
100
AcDbEntity
100
AcDbLine
10
0.185248
20
59.715107
30
0.0
11
0.016483
21
64.816677
31
0.0
0
LINE
8
SizingCircle
62
4
5
130
100
AcDbEntity
100
AcDbLine
10
0.016483
20
64.816677
30
0.0
11
0.185248
21
69.918247
31
0.0
0
LINE
8
SizingCircle
62
4
5
131
100
AcDbEntity
100
AcDbLine
10
0.185248
20
69.918247
30
0.0
11
0.687993
21
74.957222
31
0.0
0
LINE
8
SizingCircle
62
4
5
132
100
AcDbEntity
100
AcDbLine
10
0.687993
20
74.957222
30
0.0
11
1.516667
21
79.919654
31
0.0
0
LINE
8
SizingCircle
62
4
5
133
100
AcDbEntity
100
AcDbLine
10
1.516667
20
79.919654
30
0.0
11
2.663220
21
84.791593
31
0.0
0
LINE
8
SizingCircle
62
4
5
134
100
AcDbEntity
100
AcDbLine
10
2.663220
20
84.791593
30
0.0
11
4.119599
21
89.559088
31
0.0
0
LINE
8
SizingCircle
62
4
5
135
100
AcDbEntity
100
AcDbLine
10
4.119599
20
89.559088
30
0.0
11
5.877752
21
94.208192
31
0.0
0
LINE
8
SizingCircle
62
4
5
136
100
AcDbEntity
100
AcDbLine
10
5.877752
20
94.208192
30
0.0
11
7.929629
21
98.724954
31
0.0
0
LINE
8
SizingCircle
62
4
5
137
100
AcDbEntity
100
AcDbLine
10
7.929629
20
98.724954
30
0.0
11
10.267178
21
103.095426
31
0.0
0
LINE
8
SizingCircle
62
4
5
138
100
AcDbEntity
100
AcDbLine
10
10.267178
20
103.095426
30
0.0
11
12.882346
21
107.305656
31
0.0
0
LINE
8
SizingCircle
62
4
5
139
100
AcDbEntity
100
AcDbLine
10
12.882346
20
107.305656
30
0.0
11
15.767084
21
111.341698
31
0.0
0
LINE
8
SizingCircle
62
4
5
13a
100
AcDbEntity
100
AcDbLine
10
15.767084
20
111.341698
30
0.0
11
18.913339
21
115.189599
31
0.0
0
LINE
8
SizingCircle
62
4
5
13b
100
AcDbEntity
100
AcDbLine
10
18.913339
20
115.189599
30
0.0
11
22.313060
21
118.835413
31
0.0
0
LINE
8
SizingCircle
62
4
5
13c
100
AcDbEntity
100
AcDbLine
10
22.313060
20
118.835413
30
0.0
11
25.958195
21
122.265188
31
0.0
0
LINE
8
SizingCircle
62
4
5
13d
100
AcDbEntity
100
AcDbLine
10
25.958195
20
122.265188
30
0.0
11
29.840693
21
125.464975
31
0.0
0
LINE
8
SizingCircle
62
4
5
13e
100
AcDbEntity
100
AcDbLine
10
29.840693
20
125.464975
30
0.0
11
33.952502
21
128.420826
31
0.0
0
LINE
8
SizingCircle
62
4
5
13f
100
AcDbEntity
100
AcDbLine
10
33.952502
20
128.420826
30
0.0
11
38.285571
21
131.118790
31
0.0
0
LINE
8
SizingCircle
62
4
5
140
100
AcDbEntity
100
AcDbLine
10
38.285571
20
131.118790
30
0.0
11
42.788327
21
133.522889
31
0.0
0
LINE
8
SizingCircle
62
4
5
141
100
AcDbEntity
100
AcDbLine
10
42.788327
20
133.522889
30
0.0
11
47.403827
21
135.606440
31
0.0
0
LINE
8
SizingCircle
62
4
5
142
100
AcDbEntity
100
AcDbLine
10
47.403827
20
135.606440
30
0.0
11
52.115965
21
137.369446
31
0.0
0
LINE
8
SizingCircle
62
4
5
143
100
AcDbEntity
100
AcDbLine
10
52.115965
20
137.369446
30
0.0
11
56.908634
21
138.811905
31
0.0
0
LINE
8
SizingCircle
62
4
5
144
100
AcDbEntity
100
AcDbLine
10
56.908634
20
138.811905
30
0.0
11
61.765729
21
139.933817
31
0.0
0
LINE
8
SizingCircle
62
4
5
145
100
AcDbEntity
100
AcDbLine
10
61.765729
20
139.933817
30
0.0
11
66.671142
21
140.735183
31
0.0
0
LINE
8
SizingCircle
62
4
5
146
100
AcDbEntity
100
AcDbLine
10
66.671142
20
140.735183
30
0.0
11
71.608768
21
141.216003
31
0.0
0
LINE
8
SizingCircle
62
4
5
147
100
AcDbEntity
100
AcDbLine
10
71.608768
20
141.216003
30
0.0
11
76.562501
21
141.376276
31
0.0
0
LINE
8
SizingCircle
62
4
5
148
100
AcDbEntity
100
AcDbLine
10
76.562501
20
141.376276
30
0.0
11
81.516233
21
141.216003
31
0.0
0
LINE
8
SizingCircle
62
4
5
149
100
AcDbEntity
100
AcDbLine
10
81.516233
20
141.216003
30
0.0
11
86.453859
21
140.735183
31
0.0
0
LINE
8
SizingCircle
62
4
5
14a
100
AcDbEntity
100
AcDbLine
10
86.453859
20
140.735183
30
0.0
11
91.359273
21
139.933817
31
0.0
0
LINE
8
SizingCircle
62
4
5
14b
100
AcDbEntity
100
AcDbLine
10
91.359273
20
139.933817
30
0.0
11
96.216367
21
138.811905
31
0.0
0
LINE
8
SizingCircle
62
4
5
14c
100
AcDbEntity
100
AcDbLine
10
96.216367
20
138.811905
30
0.0
11
101.009037
21
137.369446
31
0.0
0
LINE
8
SizingCircle
62
4
5
14d
100
AcDbEntity
100
AcDbLine
10
101.009037
20
137.369446
30
0.0
11
105.721175
21
135.606440
31
0.0
0
LINE
8
SizingCircle
62
4
5
14e
100
AcDbEntity
100
AcDbLine
10
105.721175
20
135.606440
30
0.0
11
110.336674
21
133.522889
31
0.0
0
LINE
8
SizingCircle
62
4
5
14f
100
AcDbEntity
100
AcDbLine
10
110.336674
20
133.522889
30
0.0
11
114.839430
21
131.118790
31
0.0
0
LINE
8
SizingCircle
62
4
5
150
100
AcDbEntity
100
AcDbLine
10
114.839430
20
131.118790
30
0.0
11
119.172499
21
128.420826
31
0.0
0
LINE
8
SizingCircle
62
4
5
151
100
AcDbEntity
100
AcDbLine
10
119.172499
20
128.420826
30
0.0
11
123.284308
21
125.464975
31
0.0
0
LINE
8
SizingCircle
62
4
5
152
100
AcDbEntity
100
AcDbLine
10
123.284308
20
125.464975
30
0.0
11
127.166806
21
122.265188
31
0.0
0
LINE
8
SizingCircle
62
4
5
153
100
AcDbEntity
100
AcDbLine
10
127.166806
20
122.265188
30
0.0
11
130.811941
21
118.835413
31
0.0
0
LINE
8
SizingCircle
62
4
5
154
100
AcDbEntity
100
AcDbLine
10
130.811941
20
118.835413
30
0.0
11
134.211662
21
115.189599
31
0.0
0
LINE
8
SizingCircle
62
4
5
155
100
AcDbEntity
100
AcDbLine
10
134.211662
20
115.189599
30
0.0
11
137.357917
21
111.341698
31
0.0
0
LINE
8
SizingCircle
62
4
5
156
100
AcDbEntity
100
AcDbLine
10
137.357917
20
111.341698
30
0.0
11
140.242655
21
107.305656
31
0.0
0
LINE
8
SizingCircle
62
4
5
157
100
AcDbEntity
100
AcDbLine
10
140.242655
20
107.305656
30
0.0
11
142.857824
21
103.095426
31
0.0
0
LINE
8
SizingCircle
62
4
5
158
100
AcDbEntity
100
AcDbLine
10
142.857824
20
103.095426
30
0.0
11
145.195372
21
98.724954
31
0.0
0
LINE
8
SizingCircle
62
4
5
159
100
AcDbEntity
100
AcDbLine
10
145.195372
20
98.724954
30
0.0
11
147.247249
21
94.208192
31
0.0
0
LINE
8
SizingCircle
62
4
5
15a
100
AcDbEntity
100
AcDbLine
10
147.247249
20
94.208192
30
0.0
11
149.005403
21
89.559088
31
0.0
0
LINE
8
SizingCircle
62
4
5
15b
100
AcDbEntity
100
AcDbLine
10
149.005403
20
89.559088
30
0.0
11
150.461781
21
84.791593
31
0.0
0
LINE
8
SizingCircle
62
4
5
15c
100
AcDbEntity
100
AcDbLine
10
150.461781
20
84.791593
30
0.0
11
151.608334
21
79.919654
31
0.0
0
LINE
8
SizingCircle
62
4
5
15d
100
AcDbEntity
100
AcDbLine
10
151.608334
20
79.919654
30
0.0
11
152.437008
21
74.957222
31
0.0
0
LINE
8
SizingCircle
62
4
5
15e
100
AcDbEntity
100
AcDbLine
10
152.437008
20
74.957222
30
0.0
11
152.939754
21
69.918247
31
0.0
0
LINE
8
SizingCircle
62
4
5
15f
100
AcDbEntity
100
AcDbLine
10
152.939754
20
69.918247
30
0.0
11
153.108518
21
64.816677
31
0.0
0
LINE
8
SizingCircle
62
4
5
160
100
AcDbEntity
100
AcDbLine
10
153.108518
20
64.816677
30
0.0
11
153.108518
21
64.816677
31
0.0
0
LINE
8
WingsAndHTP
62
4
5
161
100
AcDbEntity
100
AcDbLine
10
103.045480
20
-18.424655
30
0.0
11
103.645939
21
-18.373936
31
0.0
0
LINE
8
WingsAndHTP
62
4
5
162
100
AcDbEntity
100
AcDbLine
10
103.645939
20
-18.373936
30
0.0
11
104.126141
21
-18.188511
31
0.0
0
LINE
8
WingsAndHTP
62
4
5
163
100
AcDbEntity
100
AcDbLine
10
104.126141
20
-18.188511
30
0.0
11
104.492099
21
-17.885922
31
0.0
0
LINE
8
WingsAndHTP
62
4
5
164
100
AcDbEntity
100
AcDbLine
10
104.492099
20
-17.885922
30
0.0
11
104.749824
21
-17.483708
31
0.0
0
LINE
8
WingsAndHTP
62
4
5
165
100
AcDbEntity
100
AcDbLine
10
104.749824
20
-17.483708
30
0.0
11
104.964622
21
-16.450570
31
0.0
0
LINE
8
WingsAndHTP
62
4
5
166
100
AcDbEntity
100
AcDbLine
10
104.964622
20
-16.450570
30
0.0
11
104.818629
21
-15.229422
31
0.0
0
LINE
8
WingsAndHTP
62
4
5
167
100
AcDbEntity
100
AcDbLine
10
104.818629
20
-15.229422
30
0.0
11
104.359937
21
-13.960589
31
0.0
0
LINE
8
WingsAndHTP
62
4
5
168
100
AcDbEntity
100
AcDbLine
10
104.359937
20
-13.960589
30
0.0
11
103.636640
21
-12.784396
31
0.0
0
LINE
8
WingsAndHTP
62
4
5
169
100
AcDbEntity
100
AcDbLine
10
103.636640
20
-12.784396
30
0.0
11
102.696831
21
-11.841168
31
0.0
0
LINE
8
WingsAndHTP
62
4
5
16a
100
AcDbEntity
100
AcDbLine
10
102.696831
20
-11.841168
30
0.0
11
101.588604
21
-11.271230
31
0.0
0
LINE
8
WingsAndHTP
62
4
5
16b
100
AcDbEntity
100
AcDbLine
10
101.588604
20
-11.271230
30
0.0
11
78.882573
21
-5.059042
31
0.0
0
LINE
8
WingsAndHTP
62
4
5
16c
100
AcDbEntity
100
AcDbLine
10
78.882573
20
-5.059042
30
0.0
11
80.314893
21
51.042276
31
0.0
0
LINE
8
WingsAndHTP
62
4
5
16d
100
AcDbEntity
100
AcDbLine
10
80.314893
20
51.042276
30
0.0
11
80.466888
21
51.518918
31
0.0
0
LINE
8
WingsAndHTP
62
4
5
16e
100
AcDbEntity
100
AcDbLine
10
80.466888
20
51.518918
30
0.0
11
80.863129
21
51.960994
31
0.0
0
LINE
8
WingsAndHTP
62
4
5
16f
100
AcDbEntity
100
AcDbLine
10
80.863129
20
51.960994
30
0.0
11
82.297618
21
52.743555
31
0.0
0
LINE
8
WingsAndHTP
62
4
5
170
100
AcDbEntity
100
AcDbLine
10
82.297618
20
52.743555
30
0.0
11
84.436902
21
53.394170
31
0.0
0
LINE
8
WingsAndHTP
62
4
5
171
100
AcDbEntity
100
AcDbLine
10
84.436902
20
53.394170
30
0.0
11
87.099522
21
53.917048
31
0.0
0
LINE
8
WingsAndHTP
62
4
5
172
100
AcDbEntity
100
AcDbLine
10
87.099522
20
53.917048
30
0.0
11
93.268933
21
54.596442
31
0.0
0
LINE
8
WingsAndHTP
62
4
5
173
100
AcDbEntity
100
AcDbLine
10
93.268933
20
54.596442
30
0.0
11
99.354180
21
54.815421
31
0.0
0
LINE
8
WingsAndHTP
62
4
5
174
100
AcDbEntity
100
AcDbLine
10
99.354180
20
54.815421
30
0.0
11
149.853777
21
54.815421
31
0.0
0
LINE
8
WingsAndHTP
62
4
5
175
100
AcDbEntity
100
AcDbLine
10
149.853777
20
54.815421
30
0.0
11
150.581187
21
54.906825
31
0.0
0
LINE
8
WingsAndHTP
62
4
5
176
100
AcDbEntity
100
AcDbLine
10
150.581187
20
54.906825
30
0.0
11
151.084444
21
55.166321
31
0.0
0
LINE
8
WingsAndHTP
62
4
5
177
100
AcDbEntity
100
AcDbLine
10
151.084444
20
55.166321
30
0.0
11
151.378594
21
55.571839
31
0.0
0
LINE
8
WingsAndHTP
62
4
5
178
100
AcDbEntity
100
AcDbLine
10
151.378594
20
55.571839
30
0.0
11
151.478681
21
56.101305
31
0.0
0
LINE
8
WingsAndHTP
62
4
5
179
100
AcDbEntity
100
AcDbLine
10
151.478681
20
56.101305
30
0.0
11
151.156854
21
57.443795
31
0.0
0
LINE
8
WingsAndHTP
62
4
5
17a
100
AcDbEntity
100
AcDbLine
10
151.156854
20
57.443795
30
0.0
11
150.239327
21
59.017217
31
0.0
0
LINE
8
WingsAndHTP
62
4
5
17b
100
AcDbEntity
100
AcDbLine
10
150.239327
20
59.017217
30
0.0
11
148.846468
21
60.644993
31
0.0
0
LINE
8
WingsAndHTP
62
4
5
17c
100
AcDbEntity
100
AcDbLine
10
148.846468
20
60.644993
30
0.0
11
147.098642
21
62.150547
31
0.0
0
LINE
8
WingsAndHTP
62
4
5
17d
100
AcDbEntity
100
AcDbLine
10
147.098642
20
62.150547
30
0.0
11
145.116216
21
63.357304
31
0.0
0
LINE
8
WingsAndHTP
62
4
5
17e
100
AcDbEntity
100
AcDbLine
10
145.116216
20
63.357304
30
0.0
11
143.019554
21
64.088687
31
0.0
0
LINE
8
WingsAndHTP
62
4
5
17f
100
AcDbEntity
100
AcDbLine
10
143.019554
20
64.088687
30
0.0
11
76.562500
21
77.607953
31
0.0
0
LINE
8
WingsAndHTP
62
4
5
180
100
AcDbEntity
100
AcDbLine
10
76.562500
20
77.607953
30
0.0
11
10.271912
21
64.088687
31
0.0
0
LINE
8
WingsAndHTP
62
4
5
181
100
AcDbEntity
100
AcDbLine
10
10.271912
20
64.088687
30
0.0
11
8.175251
21
63.357304
31
0.0
0
LINE
8
WingsAndHTP
62
4
5
182
100
AcDbEntity
100
AcDbLine
10
8.175251
20
63.357304
30
0.0
11
6.192824
21
62.150547
31
0.0
0
LINE
8
WingsAndHTP
62
4
5
183
100
AcDbEntity
100
AcDbLine
10
6.192824
20
62.150547
30
0.0
11
4.444998
21
60.644993
31
0.0
0
LINE
8
WingsAndHTP
62
4
5
184
100
AcDbEntity
100
AcDbLine
10
4.444998
20
60.644993
30
0.0
11
3.052139
21
59.017217
31
0.0
0
LINE
8
WingsAndHTP
62
4
5
185
100
AcDbEntity
100
AcDbLine
10
3.052139
20
59.017217
30
0.0
11
2.134612
21
57.443795
31
0.0
0
LINE
8
WingsAndHTP
62
4
5
186
100
AcDbEntity
100
AcDbLine
10
2.134612
20
57.443795
30
0.0
11
1.812784
21
56.101305
31
0.0
0
LINE
8
WingsAndHTP
62
4
5
187
100
AcDbEntity
100
AcDbLine
10
1.812784
20
56.101305
30
0.0
11
1.912872
21
55.571839
31
0.0
0
LINE
8
WingsAndHTP
62
4
5
188
100
AcDbEntity
100
AcDbLine
10
1.912872
20
55.571839
30
0.0
11
2.207021
21
55.166321
31
0.0
0
LINE
8
WingsAndHTP
62
4
5
189
100
AcDbEntity
100
AcDbLine
10
2.207021
20
55.166321
30
0.0
11
2.710278
21
54.906825
31
0.0
0
LINE
8
WingsAndHTP
62
4
5
18a
100
AcDbEntity
100
AcDbLine
10
2.710278
20
54.906825
30
0.0
11
3.437688
21
54.815421
31
0.0
0
LINE
8
WingsAndHTP
62
4
5
18b
100
AcDbEntity
100
AcDbLine
10
3.437688
20
54.815421
30
0.0
11
53.945465
21
54.815421
31
0.0
0
LINE
8
WingsAndHTP
62
4
5
18c
100
AcDbEntity
100
AcDbLine
10
53.945465
20
54.815421
30
0.0
11
60.003426
21
54.596442
31
0.0
0
LINE
8
WingsAndHTP
62
4
5
18d
100
AcDbEntity
100
AcDbLine
10
60.003426
20
54.596442
30
0.0
11
66.112802
21
53.917048
31
0.0
0
LINE
8
WingsAndHTP
62
4
5
18e
100
AcDbEntity
100
AcDbLine
10
66.112802
20
53.917048
30
0.0
11
68.743357
21
53.394170
31
0.0
0
LINE
8
WingsAndHTP
62
4
5
18f
100
AcDbEntity
100
AcDbLine
10
68.743357
20
53.394170
30
0.0
11
70.854669
21
52.743555
31
0.0
0
LINE
8
WingsAndHTP
62
4
5
190
100
AcDbEntity
100
AcDbLine
10
70.854669
20
52.743555
30
0.0
11
72.269374
21
51.960994
31
0.0
0
LINE
8
WingsAndHTP
62
4
5
191
100
AcDbEntity
100
AcDbLine
10
72.269374
20
51.960994
30
0.0
11
72.660071
21
51.518918
31
0.0
0
LINE
8
WingsAndHTP
62
4
5
192
100
AcDbEntity
100
AcDbLine
10
72.660071
20
51.518918
30
0.0
11
72.810105
21
51.042276
31
0.0
0
LINE
8
WingsAndHTP
62
4
5
193
100
AcDbEntity
100
AcDbLine
10
72.810105
20
51.042276
30
0.0
11
74.242428
21
-5.059042
31
0.0
0
LINE
8
WingsAndHTP
62
4
5
194
100
AcDbEntity
100
AcDbLine
10
74.242428
20
-5.059042
30
0.0
11
51.702860
21
-11.271230
31
0.0
0
LINE
8
WingsAndHTP
62
4
5
195
100
AcDbEntity
100
AcDbLine
10
51.702860
20
-11.271230
30
0.0
11
50.594985
21
-11.841168
31
0.0
0
LINE
8
WingsAndHTP
62
4
5
196
100
AcDbEntity
100
AcDbLine
10
50.594985
20
-11.841168
30
0.0
11
49.656105
21
-12.784396
31
0.0
0
LINE
8
WingsAndHTP
62
4
5
197
100
AcDbEntity
100
AcDbLine
10
49.656105
20
-12.784396
30
0.0
11
48.934119
21
-13.960589
31
0.0
0
LINE
8
WingsAndHTP
62
4
5
198
100
AcDbEntity
100
AcDbLine
10
48.934119
20
-13.960589
30
0.0
11
48.476930
21
-15.229422
31
0.0
0
LINE
8
WingsAndHTP
62
4
5
199
100
AcDbEntity
100
AcDbLine
10
48.476930
20
-15.229422
30
0.0
11
48.332439
21
-16.450570
31
0.0
0
LINE
8
WingsAndHTP
62
4
5
19a
100
AcDbEntity
100
AcDbLine
10
48.332439
20
-16.450570
30
0.0
11
48.548548
21
-17.483708
31
0.0
0
LINE
8
WingsAndHTP
62
4
5
19b
100
AcDbEntity
100
AcDbLine
10
48.548548
20
-17.483708
30
0.0
11
48.806796
21
-17.885922
31
0.0
0
LINE
8
WingsAndHTP
62
4
5
19c
100
AcDbEntity
100
AcDbLine
10
48.806796
20
-17.885922
30
0.0
11
49.173158
21
-18.188511
31
0.0
0
LINE
8
WingsAndHTP
62
4
5
19d
100
AcDbEntity
100
AcDbLine
10
49.173158
20
-18.188511
30
0.0
11
49.653620
21
-18.373936
31
0.0
0
LINE
8
WingsAndHTP
62
4
5
19e
100
AcDbEntity
100
AcDbLine
10
49.653620
20
-18.373936
30
0.0
11
50.254171
21
-18.424655
31
0.0
0
LINE
8
WingsAndHTP
62
4
5
19f
100
AcDbEntity
100
AcDbLine
10
50.254171
20
-18.424655
30
0.0
11
76.562500
21
-17.416083
31
0.0
0
LINE
8
WingsAndHTP
62
4
5
1a0
100
AcDbEntity
100
AcDbLine
10
76.562500
20
-17.416083
30
0.0
11
103.045480
21
-18.424655
31
0.0
0
LINE
8
WingReinforce
62
4
5
1a1
100
AcDbEntity
100
AcDbLine
10
99.354180
20
83.434767
30
0.0
11
124.603978
21
79.727397
31
0.0
0
LINE
8
WingReinforce
62
4
5
1a2
100
AcDbEntity
100
AcDbLine
10
124.603978
20
79.727397
30
0.0
11
137.228879
21
77.672737
31
0.0
0
LINE
8
WingReinforce
62
4
5
1a3
100
AcDbEntity
100
AcDbLine
10
137.228879
20
77.672737
30
0.0
11
141.299232
21
76.760968
31
0.0
0
LINE
8
WingReinforce
62
4
5
1a4
100
AcDbEntity
100
AcDbLine
10
141.299232
20
76.760968
30
0.0
11
144.385339
21
75.601383
31
0.0
0
LINE
8
WingReinforce
62
4
5
1a5
100
AcDbEntity
100
AcDbLine
10
144.385339
20
75.601383
30
0.0
11
146.623288
21
74.307833
31
0.0
0
LINE
8
WingReinforce
62
4
5
1a6
100
AcDbEntity
100
AcDbLine
10
146.623288
20
74.307833
30
0.0
11
148.149167
21
72.994170
31
0.0
0
LINE
8
WingReinforce
62
4
5
1a7
100
AcDbEntity
100
AcDbLine
10
148.149167
20
72.994170
30
0.0
11
149.099067
21
71.774247
31
0.0
0
LINE
8
WingReinforce
62
4
5
1a8
100
AcDbEntity
100
AcDbLine
10
149.099067
20
71.774247
30
0.0
11
149.609076
21
70.761913
31
0.0
0
LINE
8
WingReinforce
62
4
5
1a9
100
AcDbEntity
100
AcDbLine
10
149.609076
20
70.761913
30
0.0
11
149.853777
21
69.815425
31
0.0
0
LINE
8
WingReinforce
62
4
5
1aa
100
AcDbEntity
100
AcDbLine
10
149.853777
20
69.815425
30
0.0
11
150.560397
21
70.010191
31
0.0
0
LINE
8
WingReinforce
62
4
5
1ab
100
AcDbEntity
100
AcDbLine
10
150.560397
20
70.010191
30
0.0
11
151.048223
21
70.346405
31
0.0
0
LINE
8
WingReinforce
62
4
5
1ac
100
AcDbEntity
100
AcDbLine
10
151.048223
20
70.346405
30
0.0
11
151.331746
21
70.804752
31
0.0
0
LINE
8
WingReinforce
62
4
5
1ad
100
AcDbEntity
100
AcDbLine
10
151.331746
20
70.804752
30
0.0
11
151.425458
21
71.365916
31
0.0
0
LINE
8
WingReinforce
62
4
5
1ae
100
AcDbEntity
100
AcDbLine
10
151.425458
20
71.365916
30
0.0
11
151.101413
21
72.719431
31
0.0
0
LINE
8
WingReinforce
62
4
5
1af
100
AcDbEntity
100
AcDbLine
10
151.101413
20
72.719431
30
0.0
11
150.192018
21
74.252427
31
0.0
0
LINE
8
WingReinforce
62
4
5
1b0
100
AcDbEntity
100
AcDbLine
10
150.192018
20
74.252427
30
0.0
11
148.813203
21
75.810376
31
0.0
0
LINE
8
WingReinforce
62
4
5
1b1
100
AcDbEntity
100
AcDbLine
10
148.813203
20
75.810376
30
0.0
11
147.080901
21
77.238754
31
0.0
0
LINE
8
WingReinforce
62
4
5
1b2
100
AcDbEntity
100
AcDbLine
10
147.080901
20
77.238754
30
0.0
11
145.111041
21
78.383034
31
0.0
0
LINE
8
WingReinforce
62
4
5
1b3
100
AcDbEntity
100
AcDbLine
10
145.111041
20
78.383034
30
0.0
11
143.019554
21
79.088691
31
0.0
0
LINE
8
WingReinforce
62
4
5
1b4
100
AcDbEntity
100
AcDbLine
10
143.019554
20
79.088691
30
0.0
11
76.562500
21
92.607957
31
0.0
0
LINE
8
WingReinforce
62
4
5
1b5
100
AcDbEntity
100
AcDbLine
10
76.562500
20
92.607957
30
0.0
11
10.271912
21
79.088691
31
0.0
0
LINE
8
WingReinforce
62
4
5
1b6
100
AcDbEntity
100
AcDbLine
10
10.271912
20
79.088691
30
0.0
11
8.178376
21
78.357898
31
0.0
0
LINE
8
WingReinforce
62
4
5
1b7
100
AcDbEntity
100
AcDbLine
10
8.178376
20
78.357898
30
0.0
11
6.203538
21
77.152575
31
0.0
0
LINE
8
WingReinforce
62
4
5
1b8
100
AcDbEntity
100
AcDbLine
10
6.203538
20
77.152575
30
0.0
11
4.465087
21
75.648792
31
0.0
0
LINE
8
WingReinforce
62
4
5
1b9
100
AcDbEntity
100
AcDbLine
10
4.465087
20
75.648792
30
0.0
11
3.080710
21
74.022618
31
0.0
0
LINE
8
WingReinforce
62
4
5
1ba
100
AcDbEntity
100
AcDbLine
10
3.080710
20
74.022618
30
0.0
11
2.168094
21
72.450124
31
0.0
0
LINE
8
WingReinforce
62
4
5
1bb
100
AcDbEntity
100
AcDbLine
10
2.168094
20
72.450124
30
0.0
11
1.844927
21
71.107381
31
0.0
0
LINE
8
WingReinforce
62
4
5
1bc
100
AcDbEntity
100
AcDbLine
10
1.844927
20
71.107381
30
0.0
11
1.941164
21
70.577187
31
0.0
0
LINE
8
WingReinforce
62
4
5
1bd
100
AcDbEntity
100
AcDbLine
10
1.941164
20
70.577187
30
0.0
11
2.228895
21
70.170458
31
0.0
0
LINE
8
WingReinforce
62
4
5
1be
100
AcDbEntity
100
AcDbLine
10
2.228895
20
70.170458
30
0.0
11
2.722833
21
69.909201
31
0.0
0
LINE
8
WingReinforce
62
4
5
1bf
100
AcDbEntity
100
AcDbLine
10
2.722833
20
69.909201
30
0.0
11
3.437688
21
69.815425
31
0.0
0
LINE
8
WingReinforce
62
4
5
1c0
100
AcDbEntity
100
AcDbLine
10
3.437688
20
69.815425
30
0.0
11
3.786503
21
70.778849
31
0.0
0
LINE
8
WingReinforce
62
4
5
1c1
100
AcDbEntity
100
AcDbLine
10
3.786503
20
70.778849
30
0.0
11
4.387661
21
71.806000
31
0.0
0
LINE
8
WingReinforce
62
4
5
1c2
100
AcDbEntity
100
AcDbLine
10
4.387661
20
71.806000
30
0.0
11
5.420108
21
73.039331
31
0.0
0
LINE
8
WingReinforce
62
4
5
1c3
100
AcDbEntity
100
AcDbLine
10
5.420108
20
73.039331
30
0.0
11
6.993936
21
74.360755
31
0.0
0
LINE
8
WingReinforce
62
4
5
1c4
100
AcDbEntity
100
AcDbLine
10
6.993936
20
74.360755
30
0.0
11
9.219239
21
75.652188
31
0.0
0
LINE
8
WingReinforce
62
4
5
1c5
100
AcDbEntity
100
AcDbLine
10
9.219239
20
75.652188
30
0.0
11
12.206107
21
76.795544
31
0.0
0
LINE
8
WingReinforce
62
4
5
1c6
100
AcDbEntity
100
AcDbLine
10
12.206107
20
76.795544
30
0.0
11
16.064633
21
77.672737
31
0.0
0
LINE
8
WingReinforce
62
4
5
1c7
100
AcDbEntity
100
AcDbLine
10
16.064633
20
77.672737
30
0.0
11
28.691580
21
79.727397
31
0.0
0
LINE
8
WingReinforce
62
4
5
1c8
100
AcDbEntity
100
AcDbLine
10
28.691580
20
79.727397
30
0.0
11
53.945465
21
83.434767
31
0.0
0
LINE
8
WingReinforce
62
4
5
1c9
100
AcDbEntity
100
AcDbLine
10
53.945465
20
83.434767
30
0.0
11
57.525095
21
83.967104
31
0.0
0
LINE
8
WingReinforce
62
4
5
1ca
100
AcDbEntity
100
AcDbLine
10
57.525095
20
83.967104
30
0.0
11
60.891581
21
84.328609
31
0.0
0
LINE
8
WingReinforce
62
4
5
1cb
100
AcDbEntity
100
AcDbLine
10
60.891581
20
84.328609
30
0.0
11
63.997387
21
84.282484
31
0.0
0
LINE
8
WingReinforce
62
4
5
1cc
100
AcDbEntity
100
AcDbLine
10
63.997387
20
84.282484
30
0.0
11
65.437680
21
84.032560
31
0.0
0
LINE
8
WingReinforce
62
4
5
1cd
100
AcDbEntity
100
AcDbLine
10
65.437680
20
84.032560
30
0.0
11
66.794976
21
83.591931
31
0.0
0
LINE
8
WingReinforce
62
4
5
1ce
100
AcDbEntity
100
AcDbLine
10
66.794976
20
83.591931
30
0.0
11
68.063333
21
82.930995
31
0.0
0
LINE
8
WingReinforce
62
4
5
1cf
100
AcDbEntity
100
AcDbLine
10
68.063333
20
82.930995
30
0.0
11
69.236810
21
82.020154
31
0.0
0
LINE
8
WingReinforce
62
4
5
1d0
100
AcDbEntity
100
AcDbLine
10
69.236810
20
82.020154
30
0.0
11
70.309464
21
80.829807
31
0.0
0
LINE
8
WingReinforce
62
4
5
1d1
100
AcDbEntity
100
AcDbLine
10
70.309464
20
80.829807
30
0.0
11
71.275353
21
79.330356
31
0.0
0
LINE
8
WingReinforce
62
4
5
1d2
100
AcDbEntity
100
AcDbLine
10
71.275353
20
79.330356
30
0.0
11
72.128535
21
77.492199
31
0.0
0
LINE
8
WingReinforce
62
4
5
1d3
100
AcDbEntity
100
AcDbLine
10
72.128535
20
77.492199
30
0.0
11
72.863068
21
75.285739
31
0.0
0
LINE
8
WingReinforce
62
4
5
1d4
100
AcDbEntity
100
AcDbLine
10
72.863068
20
75.285739
30
0.0
11
73.473009
21
72.681374
31
0.0
0
LINE
8
WingReinforce
62
4
5
1d5
100
AcDbEntity
100
AcDbLine
10
73.473009
20
72.681374
30
0.0
11
73.952416
21
69.649507
31
0.0
0
LINE
8
WingReinforce
62
4
5
1d6
100
AcDbEntity
100
AcDbLine
10
73.952416
20
69.649507
30
0.0
11
74.657204
21
61.622283
31
0.0
0
LINE
8
WingReinforce
62
4
5
1d7
100
AcDbEntity
100
AcDbLine
10
74.657204
20
61.622283
30
0.0
11
75.158106
21
51.261896
31
0.0
0
LINE
8
WingReinforce
62
4
5
1d8
100
AcDbEntity
100
AcDbLine
10
75.158106
20
51.261896
30
0.0
11
75.759305
21
27.737677
31
0.0
0
LINE
8
WingReinforce
62
4
5
1d9
100
AcDbEntity
100
AcDbLine
10
75.759305
20
27.737677
30
0.0
11
76.178129
21
7.468945
31
0.0
0
LINE
8
WingReinforce
62
4
5
1da
100
AcDbEntity
100
AcDbLine
10
76.178129
20
7.468945
30
0.0
11
76.451062
21
1.177915
31
0.0
0
LINE
8
WingReinforce
62
4
5
1db
100
AcDbEntity
100
AcDbLine
10
76.451062
20
1.177915
30
0.0
11
76.626492
21
-0.547824
31
0.0
0
LINE
8
WingReinforce
62
4
5
1dc
100
AcDbEntity
100
AcDbLine
10
76.626492
20
-0.547824
30
0.0
11
76.836693
21
-1.152209
31
0.0
0
LINE
8
WingReinforce
62
4
5
1dd
100
AcDbEntity
100
AcDbLine
10
76.836693
20
-1.152209
30
0.0
11
77.033931
21
-0.547842
31
0.0
0
LINE
8
WingReinforce
62
4
5
1de
100
AcDbEntity
100
AcDbLine
10
77.033931
20
-0.547842
30
0.0
11
77.173080
21
1.177844
31
0.0
0
LINE
8
WingReinforce
62
4
5
1df
100
AcDbEntity
100
AcDbLine
10
77.173080
20
1.177844
30
0.0
11
77.319135
21
7.468703
31
0.0
0
LINE
8
WingReinforce
62
4
5
1e0
100
AcDbEntity
100
AcDbLine
10
77.319135
20
7.468703
30
0.0
11
77.376456
21
27.737032
31
0.0
0
LINE
8
WingReinforce
62
4
5
1e1
100
AcDbEntity
100
AcDbLine
10
77.376456
20
27.737032
30
0.0
11
77.455827
21
39.616600
31
0.0
0
LINE
8
WingReinforce
62
4
5
1e2
100
AcDbEntity
100
AcDbLine
10
77.455827
20
39.616600
30
0.0
11
77.681073
21
51.261169
31
0.0
0
LINE
8
WingReinforce
62
4
5
1e3
100
AcDbEntity
100
AcDbLine
10
77.681073
20
51.261169
30
0.0
11
78.136247
21
61.621789
31
0.0
0
LINE
8
WingReinforce
62
4
5
1e4
100
AcDbEntity
100
AcDbLine
10
78.136247
20
61.621789
30
0.0
11
78.476322
21
65.992820
31
0.0
0
LINE
8
WingReinforce
62
4
5
1e5
100
AcDbEntity
100
AcDbLine
10
78.476322
20
65.992820
30
0.0
11
78.905399
21
69.649507
31
0.0
0
LINE
8
WingReinforce
62
4
5
1e6
100
AcDbEntity
100
AcDbLine
10
78.905399
20
69.649507
30
0.0
11
79.429801
21
72.684160
31
0.0
0
LINE
8
WingReinforce
62
4
5
1e7
100
AcDbEntity
100
AcDbLine
10
79.429801
20
72.684160
30
0.0
11
80.049577
21
75.295574
31
0.0
0
LINE
8
WingReinforce
62
4
5
1e8
100
AcDbEntity
100
AcDbLine
10
80.049577
20
75.295574
30
0.0
11
80.765822
21
77.512356
31
0.0
0
LINE
8
WingReinforce
62
4
5
1e9
100
AcDbEntity
100
AcDbLine
10
80.765822
20
77.512356
30
0.0
11
81.579632
21
79.363111
31
0.0
0
LINE
8
WingReinforce
62
4
5
1ea
100
AcDbEntity
100
AcDbLine
10
81.579632
20
79.363111
30
0.0
11
82.492103
21
80.876447
31
0.0
0
LINE
8
WingReinforce
62
4
5
1eb
100
AcDbEntity
100
AcDbLine
10
82.492103
20
80.876447
30
0.0
11
83.504330
21
82.080968
31
0.0
0
LINE
8
WingReinforce
62
4
5
1ec
100
AcDbEntity
100
AcDbLine
10
83.504330
20
82.080968
30
0.0
11
84.617408
21
83.005281
31
0.0
0
LINE
8
WingReinforce
62
4
5
1ed
100
AcDbEntity
100
AcDbLine
10
84.617408
20
83.005281
30
0.0
11
85.832434
21
83.677992
31
0.0
0
LINE
8
WingReinforce
62
4
5
1ee
100
AcDbEntity
100
AcDbLine
10
85.832434
20
83.677992
30
0.0
11
87.150501
21
84.127709
31
0.0
0
LINE
8
WingReinforce
62
4
5
1ef
100
AcDbEntity
100
AcDbLine
10
87.150501
20
84.127709
30
0.0
11
88.572707
21
84.383035
31
0.0
0
LINE
8
WingReinforce
62
4
5
1f0
100
AcDbEntity
100
AcDbLine
10
88.572707
20
84.383035
30
0.0
11
91.733913
21
84.424946
31
0.0
0
LINE
8
WingReinforce
62
4
5
1f1
100
AcDbEntity
100
AcDbLine
10
91.733913
20
84.424946
30
0.0
11
95.324816
21
84.032573
31
0.0
0
LINE
8
WingReinforce
62
4
5
1f2
100
AcDbEntity
100
AcDbLine
10
95.324816
20
84.032573
30
0.0
11
99.354180
21
83.434767
31
0.0
0
LINE
8
WingReinforce
62
4
5
1f3
100
AcDbEntity
100
AcDbLine
10
99.354180
20
83.434767
30
0.0
11
99.354180
21
83.434767
31
0.0
0
LINE
8
Spine
62
4
5
1f4
100
AcDbEntity
100
AcDbLine
10
76.562500
20
132.854147
30
0.0
11
83.783771
21
138.545306
31
0.0
0
LINE
8
Spine
62
4
5
1f5
100
AcDbEntity
100
AcDbLine
10
83.783771
20
138.545306
30
0.0
11
84.952611
21
47.211784
31
0.0
0
LINE
8
Spine
62
4
5
1f6
100
AcDbEntity
100
AcDbLine
10
84.952611
20
47.211784
30
0.0
11
84.702650
21
42.485075
31
0.0
0
LINE
8
Spine
62
4
5
1f7
100
AcDbEntity
100
AcDbLine
10
84.702650
20
42.485075
30
0.0
11
84.050953
21
37.274570
31
0.0
0
LINE
8
Spine
62
4
5
1f8
100
AcDbEntity
100
AcDbLine
10
84.050953
20
37.274570
30
0.0
11
82.058324
21
25.677773
31
0.0
0
LINE
8
Spine
62
4
5
1f9
100
AcDbEntity
100
AcDbLine
10
82.058324
20
25.677773
30
0.0
11
80.975377
21
19.429280
31
0.0
0
LINE
8
Spine
62
4
5
1fa
100
AcDbEntity
100
AcDbLine
10
80.975377
20
19.429280
30
0.0
11
80.006665
21
12.972590
31
0.0
0
LINE
8
Spine
62
4
5
1fb
100
AcDbEntity
100
AcDbLine
10
80.006665
20
12.972590
30
0.0
11
79.281181
21
6.376605
31
0.0
0
LINE
8
Spine
62
4
5
1fc
100
AcDbEntity
100
AcDbLine
10
79.281181
20
6.376605
30
0.0
11
78.927918
21
-0.289777
31
0.0
0
LINE
8
Spine
62
4
5
1fd
100
AcDbEntity
100
AcDbLine
10
78.927918
20
-0.289777
30
0.0
11
76.562500
21
-1.411946
31
0.0
0
LINE
8
Spine
62
4
5
1fe
100
AcDbEntity
100
AcDbLine
10
76.562500
20
-1.411946
30
0.0
11
76.562500
21
132.854147
31
0.0
0
LINE
8
VTP
62
4
5
1ff
100
AcDbEntity
100
AcDbLine
10
76.590660
20
22.319485
30
0.0
11
101.249836
21
8.588417
31
0.0
0
LINE
8
VTP
62
4
5
200
100
AcDbEntity
100
AcDbLine
10
101.249836
20
8.588417
30
0.0
11
103.160306
21
7.190160
31
0.0
0
LINE
8
VTP
62
4
5
201
100
AcDbEntity
100
AcDbLine
10
103.160306
20
7.190160
30
0.0
11
104.723178
21
5.421292
31
0.0
0
LINE
8
VTP
62
4
5
202
100
AcDbEntity
100
AcDbLine
10
104.723178
20
5.421292
30
0.0
11
105.894074
21
3.463606
31
0.0
0
LINE
8
VTP
62
4
5
203
100
AcDbEntity
100
AcDbLine
10
105.894074
20
3.463606
30
0.0
11
106.628615
21
1.498898
31
0.0
0
LINE
8
VTP
62
4
5
204
100
AcDbEntity
100
AcDbLine
10
106.628615
20
1.498898
30
0.0
11
106.882421
21
-0.291036
31
0.0
0
LINE
8
VTP
62
4
5
205
100
AcDbEntity
100
AcDbLine
10
106.882421
20
-0.291036
30
0.0
11
106.815181
21
-1.063652
31
0.0
0
LINE
8
VTP
62
4
5
206
100
AcDbEntity
100
AcDbLine
10
106.815181
20
-1.063652
30
0.0
11
106.611114
21
-1.724402
31
0.0
0
LINE
8
VTP
62
4
5
207
100
AcDbEntity
100
AcDbLine
10
106.611114
20
-1.724402
30
0.0
11
106.264675
21
-2.250561
31
0.0
0
LINE
8
VTP
62
4
5
208
100
AcDbEntity
100
AcDbLine
10
106.264675
20
-2.250561
30
0.0
11
105.770315
21
-2.619405
31
0.0
0
LINE
8
VTP
62
4
5
209
100
AcDbEntity
100
AcDbLine
10
105.770315
20
-2.619405
30
0.0
11
105.122487
21
-2.808208
31
0.0
0
LINE
8
VTP
62
4
5
20a
100
AcDbEntity
100
AcDbLine
10
105.122487
20
-2.808208
30
0.0
11
104.315644
21
-2.794248
31
0.0
0
LINE
8
VTP
62
4
5
20b
100
AcDbEntity
100
AcDbLine
10
104.315644
20
-2.794248
30
0.0
11
76.590660
21
1.042594
31
0.0
0
LINE
8
VTP
62
4
5
20c
100
AcDbEntity
100
AcDbLine
10
76.590660
20
1.042594
30
0.0
11
76.590660
21
22.319485
31
0.0
0
LINE
8
Fuselage
62
4
5
20d
100
AcDbEntity
100
AcDbLine
10
76.562500
20
139.058979
30
0.0
11
77.091481
21
138.929045
31
0.0
0
LINE
8
Fuselage
62
4
5
20e
100
AcDbEntity
100
AcDbLine
10
77.091481
20
138.929045
30
0.0
11
77.651096
21
138.527513
31
0.0
0
LINE
8
Fuselage
62
4
5
20f
100
AcDbEntity
100
AcDbLine
10
77.651096
20
138.527513
30
0.0
11
78.826470
21
137.006490
31
0.0
0
LINE
8
Fuselage
62
4
5
210
100
AcDbEntity
100
AcDbLine
10
78.826470
20
137.006490
30
0.0
11
80.017109
21
134.689586
31
0.0
0
LINE
8
Fuselage
62
4
5
211
100
AcDbEntity
100
AcDbLine
10
80.017109
20
134.689586
30
0.0
11
81.151498
21
131.770474
31
0.0
0
LINE
8
Fuselage
62
4
5
212
100
AcDbEntity
100
AcDbLine
10
81.151498
20
131.770474
30
0.0
11
82.158123
21
128.442829
31
0.0
0
LINE
8
Fuselage
62
4
5
213
100
AcDbEntity
100
AcDbLine
10
82.158123
20
128.442829
30
0.0
11
82.965471
21
124.900326
31
0.0
0
LINE
8
Fuselage
62
4
5
214
100
AcDbEntity
100
AcDbLine
10
82.965471
20
124.900326
30
0.0
11
83.502028
21
121.336640
31
0.0
0
LINE
8
Fuselage
62
4
5
215
100
AcDbEntity
100
AcDbLine
10
83.502028
20
121.336640
30
0.0
11
83.696279
21
117.945445
31
0.0
0
LINE
8
Fuselage
62
4
5
216
100
AcDbEntity
100
AcDbLine
10
83.696279
20
117.945445
30
0.0
11
83.691757
21
105.792879
31
0.0
0
LINE
8
Fuselage
62
4
5
217
100
AcDbEntity
100
AcDbLine
10
83.691757
20
105.792879
30
0.0
11
83.554552
21
93.709445
31
0.0
0
LINE
8
Fuselage
62
4
5
218
100
AcDbEntity
100
AcDbLine
10
83.554552
20
93.709445
30
0.0
11
83.090822
21
81.587937
31
0.0
0
LINE
8
Fuselage
62
4
5
219
100
AcDbEntity
100
AcDbLine
10
83.090822
20
81.587937
30
0.0
11
82.675934
21
75.479404
31
0.0
0
LINE
8
Fuselage
62
4
5
21a
100
AcDbEntity
100
AcDbLine
10
82.675934
20
75.479404
30
0.0
11
82.106725
21
69.321149
31
0.0
0
LINE
8
Fuselage
62
4
5
21b
100
AcDbEntity
100
AcDbLine
10
82.106725
20
69.321149
30
0.0
11
81.561736
21
65.143143
31
0.0
0
LINE
8
Fuselage
62
4
5
21c
100
AcDbEntity
100
AcDbLine
10
81.561736
20
65.143143
30
0.0
11
80.789689
21
60.413321
31
0.0
0
LINE
8
Fuselage
62
4
5
21d
100
AcDbEntity
100
AcDbLine
10
80.789689
20
60.413321
30
0.0
11
78.933946
21
50.665346
31
0.0
0
LINE
8
Fuselage
62
4
5
21e
100
AcDbEntity
100
AcDbLine
10
78.933946
20
50.665346
30
0.0
11
76.562500
21
39.585886
31
0.0
0
LINE
8
Fuselage
62
4
5
21f
100
AcDbEntity
100
AcDbLine
10
76.562500
20
39.585886
30
0.0
11
76.562500
21
139.058979
31
0.0
  0
ENDSEC
  0
SECTION
  2
OBJECTS
  0
DICTIONARY
  5
C
330
0
100
AcDbDictionary
  3
ACAD_GROUP
350
D
  3
ACAD_MLINESTYLE
350
17
  0
DICTIONARY
  5
D
330
C
100
AcDbDictionary
  0
DICTIONARY
  5
1A
330
C
100
AcDbDictionary
  0
DICTIONARY
  5
17
330
C
100
AcDbDictionary
  3
STANDARD
350
18
  0
DICTIONARY
  5
19
330
C
100
AcDbDictionary
  0
ENDSEC
  0
EOF
