<?xml version="1.0" encoding="UTF-8" standalone="no"?>
<!-- Created with Inkscape (http://www.inkscape.org/) -->

<svg
   xmlns:dc="http://purl.org/dc/elements/1.1/"
   xmlns:cc="http://creativecommons.org/ns#"
   xmlns:rdf="http://www.w3.org/1999/02/22-rdf-syntax-ns#"
   xmlns:svg="http://www.w3.org/2000/svg"
   xmlns="http://www.w3.org/2000/svg"
   xmlns:sodipodi="http://sodipodi.sourceforge.net/DTD/sodipodi-0.dtd"
   xmlns:inkscape="http://www.inkscape.org/namespaces/inkscape"
   width="637.79529"
   height="637.79529"
   id="svg2"
   version="1.1"
   inkscape:version="0.48.4 r9939"
   sodipodi:docname="conceptConverted.svg">
  <sodipodi:namedview
     id="base"
     pagecolor="#ffffff"
     bordercolor="#666666"
     borderopacity="1.0"
     inkscape:pageopacity="0.0"
     inkscape:pageshadow="2"
     inkscape:zoom="0.82785184"
     inkscape:cx="318.89764"
     inkscape:cy="318.89764"
     inkscape:document-units="px"
     inkscape:current-layer="layer3"
     showgrid="false"
     units="mm"
     inkscape:window-width="1366"
     inkscape:window-height="715"
     inkscape:window-x="-8"
     inkscape:window-y="-8"
     inkscape:window-maximized="1"
     showguides="true"
     inkscape:guide-bbox="true" />
  <defs
     id="defs4" />
  <metadata
     id="metadata7">
    <rdf:RDF>
      <cc:Work
         rdf:about="">
        <dc:format>image/svg+xml</dc:format>
        <dc:type
           rdf:resource="http://purl.org/dc/dcmitype/StillImage" />
        <dc:title></dc:title>
      </cc:Work>
    </rdf:RDF>
  </metadata>
  <g
     style="display:inline"
     transform="translate(0,-414.56693)"
     id="layer1"
     inkscape:groupmode="layer"
     inkscape:label="redBase">
    <path
       inkscape:connector-curvature="0"
       style="color:#000000;fill:#e40000;fill-opacity:1;fill-rule:nonzero;stroke:#5d0000;stroke-width:1.31281173;stroke-linecap:butt;stroke-linejoin:miter;stroke-miterlimit:4;stroke-opacity:1;stroke-dasharray:none;stroke-dashoffset:0;marker:none;visibility:visible;display:inline;overflow:visible;enable-background:accumulate"
       d="m 318.90625,432.69193 -3.68249,1.39774 -4.01173,2.12904 -4.93304,3.42189 -5.46011,4.96933 -2.80449,3.1445 -2.78842,3.62683 -2.72305,4.14096 -2.60841,4.68693 -2.44448,5.26471 -2.23128,5.87432 -0.97067,3.49604 -0.81071,4.26113 -1.18321,10.5939 -0.66841,12.98338 -0.23698,14.92561 0.48689,33.8889 1.21226,36.29083 1.27073,35.11476 0.66228,30.3607 -0.10544,12.27946 -0.50764,9.74919 -0.99321,6.77168 -0.70474,2.12951 -0.8574,1.21741 -10.2769,6.56657 -21.24265,12.60347 -62.8397,36.39106 -69.07414,39.75895 -50.222857,29.2737 -13.988853,8.89669 -5.446333,3.90126 -4.524054,3.59026 -3.684114,3.31953 -2.926512,3.08908 -2.251247,2.89892 -1.658322,2.74903 -1.147734,2.63944 -0.719484,2.57011 -0.483572,5.09338 0.548975,11.1273 27.120431,-10.59563 40.207548,-16.40637 45.566998,-18.62412 43.19877,-17.24888 9.47539,-3.46598 8.72005,-2.76049 7.98456,-2.12147 7.26896,-1.54896 6.57323,-1.04293 5.89738,-0.60341 5.2414,-0.23036 4.60529,0.0762 7.38177,0.80605 5.07584,1.23433 2.92891,1.13069 0.94097,0.4951 2.13032,14.03389 4.36304,31.71794 2.0682,17.62312 1.48566,16.20328 0.52289,12.8365 -0.21841,4.54729 -0.6017,2.97548 -1.23243,2.26009 -2.01035,2.54394 -5.94305,5.82285 -7.82044,6.60859 -8.87495,7.16123 -9.1066,7.48079 -8.51537,7.56725 -3.77883,3.7432 -3.32244,3.67741 -2.7632,3.58248 -2.10109,3.45842 -2.92106,6.81328 -1.94142,6.7247 -1.14368,6.38342 -0.52785,5.78944 -0.0939,4.94278 0.15813,3.84342 0.34479,3.37796 9.80346,-6.51597 10.5397,-6.13867 11.0821,-5.73067 11.43067,-5.29196 11.5854,-4.82253 11.54629,-4.3224 11.31333,-3.79155 10.88655,-3.23 1.78577,5.21122 2.06288,4.80063 2.34867,4.38993 2.64314,3.97913 2.94629,3.56824 3.25811,3.15725 3.5786,2.74615 3.90779,2.33495 3.9051,-2.33495 3.57153,-2.74615 3.2481,-3.15725 2.93481,-3.56824 2.63167,-3.97913 2.33866,-4.38993 2.0558,-4.80063 1.78308,-5.21122 10.88655,3.23 11.31333,3.79155 11.54629,4.3224 11.5854,4.82253 11.43067,5.29196 11.0821,5.73067 10.5397,6.13867 9.80346,6.51597 0.34478,-3.37796 0.15814,-3.84342 -0.0939,-4.94278 -0.52785,-5.78944 -1.14368,-6.38342 -1.94142,-6.7247 -2.92106,-6.81328 -2.10109,-3.45842 -2.7632,-3.58248 -3.32244,-3.67741 -3.77883,-3.7432 -8.51537,-7.56725 -9.1066,-7.48079 -8.87495,-7.16123 -7.82044,-6.60859 -5.94305,-5.82285 -2.01035,-2.54394 -1.23243,-2.26009 -0.60135,-2.97548 -0.21742,-4.54729 0.52643,-12.8365 1.49067,-16.20328 2.07393,-17.62312 4.37378,-31.71794 2.13521,-14.03389 0.94097,-0.4951 2.92891,-1.13069 5.07584,-1.23433 7.38177,-0.80605 4.60529,-0.0762 5.2414,0.23036 5.89738,0.60341 6.57323,1.04293 7.26896,1.54896 7.98456,2.12147 8.72005,2.76049 9.47539,3.46598 43.19877,17.24888 45.567,18.62412 40.20755,16.40637 27.12043,10.59563 0.54897,-11.1273 -0.48357,-5.09338 -0.71948,-2.57011 -1.14774,-2.63944 -1.65832,-2.74903 -2.25124,-2.89892 -2.92652,-3.08908 -3.68411,-3.31953 -4.52405,-3.59026 -5.44634,-3.90126 -13.98885,-8.89669 -50.22774,-29.2737 -69.0849,-39.75895 L 387.52443,704.58072 366.27824,691.97725 356,685.41068 l -0.8574,-1.21741 -0.70474,-2.12951 -0.99321,-6.77168 -0.50764,-9.74919 -0.10544,-12.27946 0.66228,-30.3607 1.27073,-35.11476 1.21226,-36.29083 0.48689,-33.8889 -0.23698,-14.92561 -0.66841,-12.98338 -1.18321,-10.5939 -0.81071,-4.26113 -0.97067,-3.49604 -2.23128,-5.87432 -2.44448,-5.26471 -2.60841,-4.68693 -2.72305,-4.14096 -2.78842,-3.62683 -2.80449,-3.1445 -5.46011,-4.96933 -4.93304,-3.42189 -4.01173,-2.12904 -3.68249,-1.39774 0,0 m 0.0312,7.8125 7.24854,5.18699 6.01444,5.69635 4.887,6.16539 3.86621,6.5941 2.95208,6.9825 2.1446,7.33058 1.44378,7.63833 0.8496,7.90576 0.22465,13.39687 -0.36108,22.14577 -1.6327,58.58149 -1.43562,57.70693 -0.11476,21.05256 0.18599,7.26828 0.38352,4.5981 0.27223,3.10356 -0.1431,3.02301 -0.5248,2.92628 -0.87289,2.8134 -1.18735,2.68434 -1.4682,2.53913 -3.64445,4.57793 -4.36439,3.80307 -4.81539,2.89888 -4.99742,1.86537 -4.91049,0.70253 -4.91318,-0.70253 -5.00449,-1.86537 -4.8254,-2.89888 -4.37587,-3.80307 -3.65593,-4.57793 -1.47347,-2.53913 -1.19208,-2.68434 -0.87689,-2.8134 -0.52788,-2.92628 -0.14508,-3.02301 0.27152,-3.10356 0.38352,-4.5981 0.18599,-7.26828 -0.11476,-21.05256 -1.43563,-57.70693 -1.63269,-58.58149 -0.36108,-22.14577 0.22465,-13.39687 0.85229,-7.90576 1.45085,-7.63833 2.15461,-7.33057 2.96356,-6.9825 3.87769,-6.59411 4.89701,-6.16539 6.02152,-5.69635 7.25122,-5.18699 0,0 m -33.59375,329.03125 3.28197,0.58884 1.60023,0.7489 1.53949,1.06433 1.45357,1.38906 1.34249,1.72313 1.20622,2.06652 1.04478,2.41922 0.99314,3.82188 0.9371,5.73431 1.68482,16.08101 1.39684,20.35604 1.06633,22.38129 0.69327,22.15673 0.27766,19.68239 -0.18048,14.95826 -0.27535,5.00452 -0.40583,2.97982 -1.34623,3.30173 -2.00991,2.40706 -2.46751,1.50758 -2.71904,0.60329 -2.76448,-0.30581 -2.60384,-1.21971 -2.23714,-2.13843 -1.66435,-3.06196 -1.57734,-7.91133 -1.96446,-15.11721 -2.12798,-19.97389 -2.06795,-22.48136 -1.78431,-22.63964 -1.27712,-20.44871 -0.54635,-15.90859 0.0707,-5.51763 0.33727,-3.50164 0.66337,-2.4109 0.94534,-2.13276 1.18964,-1.84125 1.39632,-1.53635 1.56534,-1.21806 1.69673,-0.8864 1.79046,-0.54136 1.84655,-0.18292 0,0 m 67.03125,0 1.84521,0.18292 1.78692,0.54136 1.69172,0.8864 1.5596,1.21806 1.39058,1.53635 1.18465,1.84125 0.94179,2.13276 0.66203,2.4109 0.33762,3.50164 0.0717,5.51763 -0.5428,15.90859 -1.27212,20.44871 -1.77858,22.63964 -2.0622,22.48136 -2.12299,19.97389 -1.96091,15.11721 -1.576,7.91133 -1.66435,3.06196 -2.23714,2.13843 -2.60384,1.21971 -2.76448,0.30581 -2.71904,-0.60329 -2.46751,-1.50758 -2.00991,-2.40706 -1.34623,-3.30173 -0.40583,-2.97982 -0.27535,-5.00452 -0.18048,-14.95826 0.27766,-19.68239 0.69327,-22.15673 1.06633,-22.38129 1.39684,-20.35604 1.68482,-16.08101 0.9371,-5.73431 0.99314,-3.82188 1.04478,-2.41922 1.20622,-2.06652 1.34249,-1.72313 1.45357,-1.38906 1.53949,-1.06433 1.60023,-0.7489 3.28197,-0.58884 0,0"
       id="path3022" />
  </g>
  <g
     style="display:inline"
     inkscape:label="blueReinforce"
     id="layer2"
     inkscape:groupmode="layer">
    <path
       id="path3801"
       d="m 318.89764,17.527131 -3.67761,1.397745 -4.00672,2.129032 -4.92731,3.421897 -5.45436,4.969327 -2.80186,3.144504 -2.78605,3.626823 -2.72106,4.140966 -2.60686,4.686928 -2.4435,5.264712 -2.23092,5.874316 -0.97067,3.496042 -0.81071,4.26113 -1.18321,10.5939 -0.66841,12.983378 -0.23698,14.925609 0.48689,33.8889 1.21226,36.29084 1.27073,35.11476 0.66228,30.3607 -0.10544,12.27946 -0.50764,9.74919 -0.99321,6.77168 -0.70474,2.12951 -0.8574,1.21741 -10.2769,6.56657 -21.24265,12.60347 -62.8397,36.39106 -69.07414,39.75895 -50.22286,29.2737 -13.988855,8.89669 -5.446333,3.90126 -4.524055,3.59026 -3.684114,3.31953 -2.926512,3.08908 -2.251248,2.89892 -1.658321,2.74903 -1.147734,2.63944 -0.719485,2.57011 -0.483572,5.09338 0.548975,11.1273 4.938255,-6.62748 5.486304,-6.3843 6.024033,-6.17206 6.551446,-5.99078 7.068541,-5.84043 7.575319,-5.72103 8.071779,-5.63258 8.557922,-5.57507 18.533005,-11.1014 20.35376,-11.24272 45.83964,-23.89965 35.52587,-18.15144 16.1317,-7.60668 14.94721,-6.14165 7.00669,-2.40762 6.68329,-1.90477 6.35079,-1.35639 6.00919,-0.76248 5.65852,-0.12304 5.29873,0.56193 4.92986,1.29243 4.5519,2.06846 2.11844,1.48238 1.99773,1.95642 1.88051,2.40185 1.76674,2.81866 3.20607,6.77334 2.79264,8.09729 2.40694,9.19239 2.049,10.05859 1.7188,10.69593 1.41634,11.1044 2.03631,22.51868 1.15942,21.40606 0.50451,18.46243 0.0716,13.68783 -0.0919,23.96642 0.21534,13.274 0.58848,13.55788 1.11082,13.40926 1.78235,12.82816 2.6031,11.81456 1.65596,5.39203 1.91709,4.97644 1.91709,-4.97644 1.65595,-5.39203 2.6031,-11.81456 1.78236,-12.82816 1.11081,-13.40926 0.58848,-13.55788 0.21535,-13.274 -0.0919,-23.96642 0.0716,-13.68783 0.50451,-18.46243 1.15942,-21.40606 2.03631,-22.51868 1.41634,-11.1044 1.7188,-10.69593 2.049,-10.05859 2.40694,-9.19239 2.79264,-8.09729 3.20607,-6.77334 1.76674,-2.81866 1.88051,-2.40185 1.99773,-1.95642 2.11844,-1.48238 4.5519,-2.06846 4.92986,-1.29243 5.29873,-0.56193 5.65852,0.12304 6.00919,0.76248 6.35079,1.35639 6.68329,1.90477 7.00669,2.40762 14.94721,6.14165 16.1317,7.60668 35.52587,18.15144 45.83964,23.89965 20.35376,11.24272 18.533,11.1014 8.55792,5.57507 8.07178,5.63258 7.57532,5.72103 7.06854,5.84043 6.55145,5.99078 6.02403,6.17206 5.4863,6.3843 4.93826,6.62748 0.54897,-11.1273 -0.48357,-5.09338 -0.71948,-2.57011 -1.14774,-2.63944 -1.65832,-2.74903 -2.25124,-2.89892 -2.92652,-3.08908 -3.68411,-3.31953 -4.52405,-3.59026 -5.44634,-3.90126 -13.98885,-8.89669 -50.22286,-29.2737 -69.07414,-39.75895 -62.8397,-36.39106 -21.24265,-12.60347 -10.2769,-6.56657 -0.8574,-1.21741 -0.70474,-2.12951 -0.99321,-6.77168 -0.50764,-9.74919 -0.10544,-12.27946 0.66228,-30.3607 1.27073,-35.11476 1.21226,-36.29084 0.48689,-33.8889 -0.23698,-14.925609 -0.66841,-12.983378 -1.18321,-10.5939 -0.81071,-4.26113 -0.97067,-3.496042 -2.23092,-5.874316 -2.4435,-5.264712 -2.60686,-4.686928 -2.72106,-4.140966 -2.78605,-3.626823 -2.80186,-3.144504 -5.45436,-4.969327 -4.92731,-3.421897 -4.00672,-2.129032 -3.67761,-1.397745 0,0 m 0,7.8125 7.23125,5.186991 6.00633,5.696351 4.88594,6.165389 3.87009,6.594105 2.95879,6.982501 2.15201,7.330575 1.44977,7.638328 0.85207,7.905759 0.22465,13.396874 -0.36108,22.145766 -1.6327,58.5815 -1.43562,57.70693 -0.11476,21.05256 0.18599,7.26828 0.38352,4.5981 0.27156,3.10356 -0.1449,3.02301 -0.52749,2.92628 -0.8762,2.8134 -1.19101,2.68434 -1.47194,2.53913 -3.65116,4.57793 -4.36828,3.80307 -4.81432,2.89888 -4.98931,1.86537 -4.8932,0.70253 -4.89321,-0.70253 -4.9893,-1.86537 -4.81433,-2.89888 -4.36828,-3.80307 -3.65115,-4.57793 -1.47194,-2.53913 -1.19101,-2.68434 -0.8762,-2.8134 -0.52749,-2.92628 -0.1449,-3.02301 0.27156,-3.10356 0.38352,-4.5981 0.18599,-7.26828 -0.11476,-21.05256 -1.43563,-57.70693 -1.63269,-58.5815 -0.36108,-22.145766 0.22465,-13.396874 0.85207,-7.905759 1.44977,-7.638328 2.15201,-7.330575 2.95878,-6.982501 3.8701,-6.594105 4.88594,-6.165389 6.00633,-5.696351 7.23125,-5.186991 0,0"
       style="color:#000000;fill:#005be4;fill-opacity:1;fill-rule:nonzero;stroke:#5d0000;stroke-width:1.31281173;stroke-linecap:butt;stroke-linejoin:miter;stroke-miterlimit:4;stroke-opacity:1;stroke-dasharray:none;stroke-dashoffset:0;marker:none;visibility:visible;display:inline;overflow:visible;enable-background:accumulate"
       inkscape:connector-curvature="0" />
  </g>
  <g
     style="display:inline"
     inkscape:label="greenSpine"
     id="layer3"
     inkscape:groupmode="layer">
    <path
       sodipodi:nodetypes="cccccccccccccccccccccccccccccccccccccccccccccccccccccccccccccccccccccccccccccccccccccccccccccccccccccccccccccccccccccccccccccccccccccccccccccccccccccc"
       inkscape:connector-curvature="0"
       id="path3812"
       d="M319.02462 17.978829L315.36655 19.376574L311.37984 21.505606L306.47548 24.927503L301.04406 29.89683L298.25277 33.041334L295.47618 36.668157L292.76312 40.809123L290.16242 45.496051L287.72289 50.760763L285.49337 56.635079L284.51654 60.134512L283.68833 64.406349L282.44218 75.046822L281.68358 88.11567L281.34124 103.17207L281.62007 137.48419L282.70818 174.45658L284.03505 210.56261L285.03021 242.27566L285.22511 255.38275L285.12314 266.06911L284.653 273.89392L283.74337 278.41634L282.77761 281.13623L282.17198 283.85327L281.90453 286.57635L281.95333 289.31435L282.91171 294.87073L284.87152 300.59356L287.65712 306.55401L291.09285 312.82323L299.21215 326.57259L301.27231 330.96877L303.15659 336.69143L304.8706 343.56599L306.41995 351.41787L309.04714 369.35524L311.08305 389.10688L312.5726 409.2761L313.56069 428.46624L314.09224 445.28063L314.21215 458.32259L314.04375 481.41911L314.30602 506.6996L314.82537 519.57368L315.72447 532.29158L317.094 544.61924L319.02465 556.32259L320.9553 544.61924L322.32483 532.29158L323.22393 519.57368L323.74328 506.6996L324.00555 481.41911L323.83715 458.32259L323.95706 445.28063L324.48861 428.46624L325.4767 409.2761L326.96625 389.10688L329.00216 369.35524L331.62935 351.41787L333.1787 343.56599L334.89271 336.69143L336.77699 330.96877L338.83715 326.57259L346.95157 312.82323L350.3823 306.55401L353.16215 300.59356L355.11622 294.87073L356.06961 289.31435L356.11641 286.57635L355.84741 283.85327L355.24079 281.13623L354.27468 278.41634L353.36505 273.89392L352.89491 266.06911L352.79294 255.38275L352.98784 242.27566L353.983 210.56261L355.30987 174.45658L356.39798 137.48419L356.67681 103.17207L356.33447 88.11567L355.57587 75.046822L354.32972 64.406349L353.50151 60.134512L352.52468 56.635079L350.29551 50.760763L347.85698 45.496051L345.25782 40.809123L342.54676 36.668157L339.77253 33.041334L336.98387 29.89683L331.55819 24.927503L326.65957 21.505606L322.67787 19.376574L319.02468 17.978829L319.02468 17.978829M326.38093 30.97832L332.38726 36.674671L337.2732 42.84006L341.14329 49.434165L344.10208 56.416666L346.25409 63.747241L347.70386 71.385569L348.55593 79.291329L348.78058 92.688203L348.4195 114.83397L346.7868 173.41547L345.35118 231.1224L345.23642 252.17496L345.42241 259.44324L345.80593 264.04134L346.07749 267.1449L345.93259 270.16791L345.4051 273.09419L344.5289 275.90759L343.33789 278.59193L341.86595 281.13106L338.21479 285.70899L333.84651 289.51206L329.03219 292.41094L324.04288 294.27631L319.14968 294.97884L314.25647 294.27631L309.26717 292.41094L304.45284 289.51206L300.08456 285.70899L296.43341 281.13106L294.96147 278.59193L293.77046 275.90759L292.89426 273.09419L292.36677 270.16791L292.22187 267.1449L292.49343 264.04134L292.87695 259.44324L293.06294 252.17496L292.94818 231.1224L291.51255 173.41547L289.87986 114.83397L289.51878 92.688203L289.74343 79.291329L290.5955 71.385569L292.04527 63.747241L294.19728 56.416666L297.15606 49.434165L301.02616 42.84006L305.9121 36.674671L311.91843 30.97832L315.488682812 29.2420016094L318.9602225 28.651365875L322.526490937 29.2242072031L326.38093 30.97832L326.38093 30.97832"
       style="color:#000000;fill:#35e400;fill-opacity:1;fill-rule:nonzero;stroke:#5d0000;stroke-width:1.31281173;stroke-linecap:butt;stroke-linejoin:miter;stroke-miterlimit:4;stroke-opacity:1;stroke-dasharray:none;stroke-dashoffset:0;marker:none;visibility:visible;display:inline;overflow:visible;enable-background:accumulate" />
  </g>
  <g
     style="display:inline"
     inkscape:label="purpleTop"
     id="layer4"
     inkscape:groupmode="layer">
    <path
       sodipodi:nodetypes="scccscs"
       inkscape:connector-curvature="0"
       d="m 316.48006,458.83154 -0.40525,-29.88202 -0.61465,-19.20664 -0.92659,-20.18657 -1.26645,-19.76861 -1.63427,-17.9528 -2.03,-14.7391 -1.17213,-5.72758 -1.28154,-4.39996 -4.12117,-17.09354 -2.11018,-11.81929 -0.36502,-4.42235 0.0609,-3.69246 0.46112,-3.15878 0.83576,-2.82132 1.18478,-2.68008 1.50817,-2.73507 3.88404,-6.41998 4.87015,-8.99457 2.74082,-5.95331 2.91048,-7.18562 2.91048,7.18562 2.74081,5.95331 4.87016,8.99457 3.88404,6.41998 1.50817,2.73507 1.18477,2.68008 0.83576,2.82132 0.46112,3.15878 0.0609,3.69246 -0.36502,4.42235 -2.11018,11.81929 -4.12117,17.09354 -1.28154,4.39996 -1.17213,5.72758 -2.03,14.7391 -1.63427,17.9528 -1.26645,19.76861 -0.92659,20.18657 -0.61465,19.20664 -0.40525,29.88202 0.11202,23.11638 -0.11231,25.30222 -0.7444,25.61398 -0.73665,12.33825 -1.04758,11.71342 -1.04758,-11.71342 -0.73666,-12.33825 -0.7444,-25.61398 -0.11231,-25.30222 0.11202,-23.11638 0,0"
       style="color:#000000;fill:#da00e4;fill-opacity:1;fill-rule:nonzero;stroke:#5d0000;stroke-width:1.03586888;stroke-linecap:butt;stroke-linejoin:miter;stroke-miterlimit:4;stroke-opacity:1;stroke-dasharray:none;stroke-dashoffset:0;marker:none;visibility:visible;display:inline;overflow:visible;enable-background:accumulate"
       id="path3822" />
  </g>
</svg>
