999
Inkscape export via "Better DXF Output" (bob@bobcookdev.com)
  0
SECTION
  2
HEADER
  9
$ACADVER
  1
AC1014
  9
$HANDSEED
  5
FFFF
  0
ENDSEC
  0
SECTION
  2
TABLES
  0
TABLE
  2
VPORT
  5
8
330
0
100
AcDbSymbolTable
 70
     4
  0
VPORT
  5
2E
330
8
100
AcDbSymbolTableRecord
100
AcDbViewportTableRecord
  2
*ACTIVE
 70
     0
 10
0.0
 20
0.0
 11
1.0
 21
1.0
 12
4.25
 22
5.5
 13
0.0
 23
0.0
 14
10.0
 24
10.0
 15
10.0
 25
10.0
 16
0.0
 26
0.0
 36
1.0
 17
0.0
 27
0.0
 37
0.0
 40
11
 41
1.24
 42
50.0
 43
0.0
 44
0.0
 50
0.0
 51
0.0
 71
     0
 72
   100
 73
     1
 74
     3
 75
     0
 76
     0
 77
     0
 78
     0
  0
ENDTAB
  0
TABLE
  2
LTYPE
  5
5
330
0
100
AcDbSymbolTable
 70
     1
  0
LTYPE
  5
14
330
5
100
AcDbSymbolTableRecord
100
AcDbLinetypeTableRecord
  2
BYBLOCK
 70
     0
  3

 72
    65
 73
     0
 40
0.0
  0
LTYPE
  5
15
330
5
100
AcDbSymbolTableRecord
100
AcDbLinetypeTableRecord
  2
BYLAYER
 70
     0
  3

 72
    65
 73
     0
 40
0.0
  0
LTYPE
  5
16
330
5
100
AcDbSymbolTableRecord
100
AcDbLinetypeTableRecord
  2
CONTINUOUS
 70
     0
  3
Solid line
 72
    65
 73
     0
 40
0.0
  0
ENDTAB
  0
TABLE
  2
LAYER
  5
2
330
0
100
AcDbSymbolTable
 70
1
  0
LAYER
  5
10
330
2
100
AcDbSymbolTableRecord
100
AcDbLayerTableRecord
  2
0
 70
     0
 62
     7
  6
CONTINUOUS
  0
ENDTAB
  0
TABLE
  2
STYLE
  5
3
330
0
100
AcDbSymbolTable
 70
     1
  0
STYLE
  5
11
330
3
100
AcDbSymbolTableRecord
100
AcDbTextStyleTableRecord
  2
STANDARD
 70
     0
 40
0.0
 41
1.0
 50
0.0
 71
     0
 42
2.5
  3
txt
  4

  0
ENDTAB
  0
TABLE
  2
VIEW
  5
6
330
0
100
AcDbSymbolTable
 70
     0
  0
ENDTAB
  0
TABLE
  2
UCS
  5
7
330
0
100
AcDbSymbolTable
 70
     0
  0
ENDTAB
  0
TABLE
  2
APPID
  5
9
330
0
100
AcDbSymbolTable
 70
     2
  0
APPID
  5
12
330
9
100
AcDbSymbolTableRecord
100
AcDbRegAppTableRecord
  2
ACAD
 70
     0
  0
ENDTAB
  0
TABLE
  2
DIMSTYLE
  5
A
330
0
100
AcDbSymbolTable
 70
     1
  0
DIMSTYLE
105
27
330
A
100
AcDbSymbolTableRecord
100
AcDbDimStyleTableRecord
  2
ISO-25
 70
     0
  3

  4

  5

  6

  7

 40
1.0
 41
2.5
 42
0.625
 43
3.75
 44
1.25
 45
0.0
 46
0.0
 47
0.0
 48
0.0
140
2.5
141
2.5
142
0.0
143
0.03937007874016
144
1.0
145
0.0
146
1.0
147
0.625
 71
     0
 72
     0
 73
     0
 74
     0
 75
     0
 76
     0
 77
     1
 78
     8
170
     0
171
     3
172
     1
173
     0
174
     0
175
     0
176
     0
177
     0
178
     0
270
     2
271
     2
272
     2
273
     2
274
     3
340
11
275
     0
280
     0
281
     0
282
     0
283
     0
284
     8
285
     0
286
     0
287
     3
288
     0
  0
ENDTAB
  0
TABLE
  2
BLOCK_RECORD
  5
1
330
0
100
AcDbSymbolTable
 70
     1
  0
BLOCK_RECORD
  5
1F
330
1
100
AcDbSymbolTableRecord
100
AcDbBlockTableRecord
  2
*MODEL_SPACE
  0
BLOCK_RECORD
  5
1B
330
1
100
AcDbSymbolTableRecord
100
AcDbBlockTableRecord
  2
*PAPER_SPACE
  0
ENDTAB
  0
ENDSEC
  0
SECTION
  2
BLOCKS
  0
BLOCK
  5
20
330
1F
100
AcDbEntity
  8
0
100
AcDbBlockBegin
  2
*MODEL_SPACE
 70
     0
 10
0.0
 20
0.0
 30
0.0
  3
*MODEL_SPACE
  1

  0
ENDBLK
  5
21
330
1F
100
AcDbEntity
  8
0
100
AcDbBlockEnd
  0
BLOCK
  5
1C
330
1B
100
AcDbEntity
 67
     1
  8
0
100
AcDbBlockBegin
  2
*PAPER_SPACE
  1

  0
ENDBLK
  5
1D
330
1B
100
AcDbEntity
 67
     1
  8
0
100
AcDbBlockEnd
  0
ENDSEC
  0
SECTION
  2
ENTITIES
0
LINE
8
SizingCircle
62
4
5
100
100
AcDbEntity
100
AcDbLine
10
153.108518
20
64.816677
30
0.0
11
153.008917
21
60.877629
31
0.0
0
LINE
8
SizingCircle
62
4
5
101
100
AcDbEntity
100
AcDbLine
10
153.008917
20
60.877629
30
0.0
11
152.713320
21
56.990291
31
0.0
0
LINE
8
SizingCircle
62
4
5
102
100
AcDbEntity
100
AcDbLine
10
152.713320
20
56.990291
30
0.0
11
152.226536
21
53.159473
31
0.0
0
LINE
8
SizingCircle
62
4
5
103
100
AcDbEntity
100
AcDbLine
10
152.226536
20
53.159473
30
0.0
11
151.553375
21
49.389984
31
0.0
0
LINE
8
SizingCircle
62
4
5
104
100
AcDbEntity
100
AcDbLine
10
151.553375
20
49.389984
30
0.0
11
150.698647
21
45.686634
31
0.0
0
LINE
8
SizingCircle
62
4
5
105
100
AcDbEntity
100
AcDbLine
10
150.698647
20
45.686634
30
0.0
11
149.667161
21
42.054232
31
0.0
0
LINE
8
SizingCircle
62
4
5
106
100
AcDbEntity
100
AcDbLine
10
149.667161
20
42.054232
30
0.0
11
148.463726
21
38.497588
31
0.0
0
LINE
8
SizingCircle
62
4
5
107
100
AcDbEntity
100
AcDbLine
10
148.463726
20
38.497588
30
0.0
11
147.093153
21
35.021511
31
0.0
0
LINE
8
SizingCircle
62
4
5
108
100
AcDbEntity
100
AcDbLine
10
147.093153
20
35.021511
30
0.0
11
145.560250
21
31.630812
31
0.0
0
LINE
8
SizingCircle
62
4
5
109
100
AcDbEntity
100
AcDbLine
10
145.560250
20
31.630812
30
0.0
11
143.869827
21
28.330299
31
0.0
0
LINE
8
SizingCircle
62
4
5
10a
100
AcDbEntity
100
AcDbLine
10
143.869827
20
28.330299
30
0.0
11
142.026694
21
25.124781
31
0.0
0
LINE
8
SizingCircle
62
4
5
10b
100
AcDbEntity
100
AcDbLine
10
142.026694
20
25.124781
30
0.0
11
140.035661
21
22.019069
31
0.0
0
LINE
8
SizingCircle
62
4
5
10c
100
AcDbEntity
100
AcDbLine
10
140.035661
20
22.019069
30
0.0
11
137.901536
21
19.017973
31
0.0
0
LINE
8
SizingCircle
62
4
5
10d
100
AcDbEntity
100
AcDbLine
10
137.901536
20
19.017973
30
0.0
11
135.629129
21
16.126300
31
0.0
0
LINE
8
SizingCircle
62
4
5
10e
100
AcDbEntity
100
AcDbLine
10
135.629129
20
16.126300
30
0.0
11
133.223250
21
13.348862
31
0.0
0
LINE
8
SizingCircle
62
4
5
10f
100
AcDbEntity
100
AcDbLine
10
133.223250
20
13.348862
30
0.0
11
130.688709
21
10.690468
31
0.0
0
LINE
8
SizingCircle
62
4
5
110
100
AcDbEntity
100
AcDbLine
10
130.688709
20
10.690468
30
0.0
11
128.030314
21
8.155926
31
0.0
0
LINE
8
SizingCircle
62
4
5
111
100
AcDbEntity
100
AcDbLine
10
128.030314
20
8.155926
30
0.0
11
125.252876
21
5.750047
31
0.0
0
LINE
8
SizingCircle
62
4
5
112
100
AcDbEntity
100
AcDbLine
10
125.252876
20
5.750047
30
0.0
11
122.361204
21
3.477641
31
0.0
0
LINE
8
SizingCircle
62
4
5
113
100
AcDbEntity
100
AcDbLine
10
122.361204
20
3.477641
30
0.0
11
119.360107
21
1.343516
31
0.0
0
LINE
8
SizingCircle
62
4
5
114
100
AcDbEntity
100
AcDbLine
10
119.360107
20
1.343516
30
0.0
11
116.254396
21
-0.647518
31
0.0
0
LINE
8
SizingCircle
62
4
5
115
100
AcDbEntity
100
AcDbLine
10
116.254396
20
-0.647518
30
0.0
11
113.048878
21
-2.490651
31
0.0
0
LINE
8
SizingCircle
62
4
5
116
100
AcDbEntity
100
AcDbLine
10
113.048878
20
-2.490651
30
0.0
11
109.748365
21
-4.181074
31
0.0
0
LINE
8
SizingCircle
62
4
5
117
100
AcDbEntity
100
AcDbLine
10
109.748365
20
-4.181074
30
0.0
11
106.357666
21
-5.713976
31
0.0
0
LINE
8
SizingCircle
62
4
5
118
100
AcDbEntity
100
AcDbLine
10
106.357666
20
-5.713976
30
0.0
11
102.881589
21
-7.084550
31
0.0
0
LINE
8
SizingCircle
62
4
5
119
100
AcDbEntity
100
AcDbLine
10
102.881589
20
-7.084550
30
0.0
11
99.324945
21
-8.287984
31
0.0
0
LINE
8
SizingCircle
62
4
5
11a
100
AcDbEntity
100
AcDbLine
10
99.324945
20
-8.287984
30
0.0
11
95.692544
21
-9.319471
31
0.0
0
LINE
8
SizingCircle
62
4
5
11b
100
AcDbEntity
100
AcDbLine
10
95.692544
20
-9.319471
30
0.0
11
91.989194
21
-10.174199
31
0.0
0
LINE
8
SizingCircle
62
4
5
11c
100
AcDbEntity
100
AcDbLine
10
91.989194
20
-10.174199
30
0.0
11
88.219705
21
-10.847360
31
0.0
0
LINE
8
SizingCircle
62
4
5
11d
100
AcDbEntity
100
AcDbLine
10
88.219705
20
-10.847360
30
0.0
11
84.388887
21
-11.334143
31
0.0
0
LINE
8
SizingCircle
62
4
5
11e
100
AcDbEntity
100
AcDbLine
10
84.388887
20
-11.334143
30
0.0
11
80.501550
21
-11.629741
31
0.0
0
LINE
8
SizingCircle
62
4
5
11f
100
AcDbEntity
100
AcDbLine
10
80.501550
20
-11.629741
30
0.0
11
76.562502
21
-11.729342
31
0.0
0
LINE
8
SizingCircle
62
4
5
120
100
AcDbEntity
100
AcDbLine
10
76.562502
20
-11.729342
30
0.0
11
72.623454
21
-11.629741
31
0.0
0
LINE
8
SizingCircle
62
4
5
121
100
AcDbEntity
100
AcDbLine
10
72.623454
20
-11.629741
30
0.0
11
68.736116
21
-11.334143
31
0.0
0
LINE
8
SizingCircle
62
4
5
122
100
AcDbEntity
100
AcDbLine
10
68.736116
20
-11.334143
30
0.0
11
64.905298
21
-10.847360
31
0.0
0
LINE
8
SizingCircle
62
4
5
123
100
AcDbEntity
100
AcDbLine
10
64.905298
20
-10.847360
30
0.0
11
61.135809
21
-10.174199
31
0.0
0
LINE
8
SizingCircle
62
4
5
124
100
AcDbEntity
100
AcDbLine
10
61.135809
20
-10.174199
30
0.0
11
57.432459
21
-9.319471
31
0.0
0
LINE
8
SizingCircle
62
4
5
125
100
AcDbEntity
100
AcDbLine
10
57.432459
20
-9.319471
30
0.0
11
53.800057
21
-8.287984
31
0.0
0
LINE
8
SizingCircle
62
4
5
126
100
AcDbEntity
100
AcDbLine
10
53.800057
20
-8.287984
30
0.0
11
50.243413
21
-7.084550
31
0.0
0
LINE
8
SizingCircle
62
4
5
127
100
AcDbEntity
100
AcDbLine
10
50.243413
20
-7.084550
30
0.0
11
46.767337
21
-5.713976
31
0.0
0
LINE
8
SizingCircle
62
4
5
128
100
AcDbEntity
100
AcDbLine
10
46.767337
20
-5.713976
30
0.0
11
43.376637
21
-4.181074
31
0.0
0
LINE
8
SizingCircle
62
4
5
129
100
AcDbEntity
100
AcDbLine
10
43.376637
20
-4.181074
30
0.0
11
40.076124
21
-2.490651
31
0.0
0
LINE
8
SizingCircle
62
4
5
12a
100
AcDbEntity
100
AcDbLine
10
40.076124
20
-2.490651
30
0.0
11
36.870606
21
-0.647518
31
0.0
0
LINE
8
SizingCircle
62
4
5
12b
100
AcDbEntity
100
AcDbLine
10
36.870606
20
-0.647518
30
0.0
11
33.764895
21
1.343516
31
0.0
0
LINE
8
SizingCircle
62
4
5
12c
100
AcDbEntity
100
AcDbLine
10
33.764895
20
1.343516
30
0.0
11
30.763798
21
3.477641
31
0.0
0
LINE
8
SizingCircle
62
4
5
12d
100
AcDbEntity
100
AcDbLine
10
30.763798
20
3.477641
30
0.0
11
27.872126
21
5.750047
31
0.0
0
LINE
8
SizingCircle
62
4
5
12e
100
AcDbEntity
100
AcDbLine
10
27.872126
20
5.750047
30
0.0
11
25.094687
21
8.155926
31
0.0
0
LINE
8
SizingCircle
62
4
5
12f
100
AcDbEntity
100
AcDbLine
10
25.094687
20
8.155926
30
0.0
11
22.436293
21
10.690468
31
0.0
0
LINE
8
SizingCircle
62
4
5
130
100
AcDbEntity
100
AcDbLine
10
22.436293
20
10.690468
30
0.0
11
19.901751
21
13.348862
31
0.0
0
LINE
8
SizingCircle
62
4
5
131
100
AcDbEntity
100
AcDbLine
10
19.901751
20
13.348862
30
0.0
11
17.495872
21
16.126300
31
0.0
0
LINE
8
SizingCircle
62
4
5
132
100
AcDbEntity
100
AcDbLine
10
17.495872
20
16.126300
30
0.0
11
15.223466
21
19.017973
31
0.0
0
LINE
8
SizingCircle
62
4
5
133
100
AcDbEntity
100
AcDbLine
10
15.223466
20
19.017973
30
0.0
11
13.089341
21
22.019069
31
0.0
0
LINE
8
SizingCircle
62
4
5
134
100
AcDbEntity
100
AcDbLine
10
13.089341
20
22.019069
30
0.0
11
11.098307
21
25.124781
31
0.0
0
LINE
8
SizingCircle
62
4
5
135
100
AcDbEntity
100
AcDbLine
10
11.098307
20
25.124781
30
0.0
11
9.255174
21
28.330299
31
0.0
0
LINE
8
SizingCircle
62
4
5
136
100
AcDbEntity
100
AcDbLine
10
9.255174
20
28.330299
30
0.0
11
7.564752
21
31.630812
31
0.0
0
LINE
8
SizingCircle
62
4
5
137
100
AcDbEntity
100
AcDbLine
10
7.564752
20
31.630812
30
0.0
11
6.031849
21
35.021511
31
0.0
0
LINE
8
SizingCircle
62
4
5
138
100
AcDbEntity
100
AcDbLine
10
6.031849
20
35.021511
30
0.0
11
4.661275
21
38.497588
31
0.0
0
LINE
8
SizingCircle
62
4
5
139
100
AcDbEntity
100
AcDbLine
10
4.661275
20
38.497588
30
0.0
11
3.457841
21
42.054232
31
0.0
0
LINE
8
SizingCircle
62
4
5
13a
100
AcDbEntity
100
AcDbLine
10
3.457841
20
42.054232
30
0.0
11
2.426354
21
45.686634
31
0.0
0
LINE
8
SizingCircle
62
4
5
13b
100
AcDbEntity
100
AcDbLine
10
2.426354
20
45.686634
30
0.0
11
1.571626
21
49.389984
31
0.0
0
LINE
8
SizingCircle
62
4
5
13c
100
AcDbEntity
100
AcDbLine
10
1.571626
20
49.389984
30
0.0
11
0.898465
21
53.159473
31
0.0
0
LINE
8
SizingCircle
62
4
5
13d
100
AcDbEntity
100
AcDbLine
10
0.898465
20
53.159473
30
0.0
11
0.411682
21
56.990291
31
0.0
0
LINE
8
SizingCircle
62
4
5
13e
100
AcDbEntity
100
AcDbLine
10
0.411682
20
56.990291
30
0.0
11
0.116084
21
60.877629
31
0.0
0
LINE
8
SizingCircle
62
4
5
13f
100
AcDbEntity
100
AcDbLine
10
0.116084
20
60.877629
30
0.0
11
0.016483
21
64.816677
31
0.0
0
LINE
8
SizingCircle
62
4
5
140
100
AcDbEntity
100
AcDbLine
10
0.016483
20
64.816677
30
0.0
11
0.116084
21
68.755725
31
0.0
0
LINE
8
SizingCircle
62
4
5
141
100
AcDbEntity
100
AcDbLine
10
0.116084
20
68.755725
30
0.0
11
0.411682
21
72.643062
31
0.0
0
LINE
8
SizingCircle
62
4
5
142
100
AcDbEntity
100
AcDbLine
10
0.411682
20
72.643062
30
0.0
11
0.898465
21
76.473880
31
0.0
0
LINE
8
SizingCircle
62
4
5
143
100
AcDbEntity
100
AcDbLine
10
0.898465
20
76.473880
30
0.0
11
1.571626
21
80.243369
31
0.0
0
LINE
8
SizingCircle
62
4
5
144
100
AcDbEntity
100
AcDbLine
10
1.571626
20
80.243369
30
0.0
11
2.426354
21
83.946719
31
0.0
0
LINE
8
SizingCircle
62
4
5
145
100
AcDbEntity
100
AcDbLine
10
2.426354
20
83.946719
30
0.0
11
3.457841
21
87.579120
31
0.0
0
LINE
8
SizingCircle
62
4
5
146
100
AcDbEntity
100
AcDbLine
10
3.457841
20
87.579120
30
0.0
11
4.661275
21
91.135764
31
0.0
0
LINE
8
SizingCircle
62
4
5
147
100
AcDbEntity
100
AcDbLine
10
4.661275
20
91.135764
30
0.0
11
6.031849
21
94.611841
31
0.0
0
LINE
8
SizingCircle
62
4
5
148
100
AcDbEntity
100
AcDbLine
10
6.031849
20
94.611841
30
0.0
11
7.564752
21
98.002540
31
0.0
0
LINE
8
SizingCircle
62
4
5
149
100
AcDbEntity
100
AcDbLine
10
7.564752
20
98.002540
30
0.0
11
9.255174
21
101.303053
31
0.0
0
LINE
8
SizingCircle
62
4
5
14a
100
AcDbEntity
100
AcDbLine
10
9.255174
20
101.303053
30
0.0
11
11.098307
21
104.508571
31
0.0
0
LINE
8
SizingCircle
62
4
5
14b
100
AcDbEntity
100
AcDbLine
10
11.098307
20
104.508571
30
0.0
11
13.089341
21
107.614282
31
0.0
0
LINE
8
SizingCircle
62
4
5
14c
100
AcDbEntity
100
AcDbLine
10
13.089341
20
107.614282
30
0.0
11
15.223466
21
110.615379
31
0.0
0
LINE
8
SizingCircle
62
4
5
14d
100
AcDbEntity
100
AcDbLine
10
15.223466
20
110.615379
30
0.0
11
17.495872
21
113.507051
31
0.0
0
LINE
8
SizingCircle
62
4
5
14e
100
AcDbEntity
100
AcDbLine
10
17.495872
20
113.507051
30
0.0
11
19.901751
21
116.284490
31
0.0
0
LINE
8
SizingCircle
62
4
5
14f
100
AcDbEntity
100
AcDbLine
10
19.901751
20
116.284490
30
0.0
11
22.436293
21
118.942884
31
0.0
0
LINE
8
SizingCircle
62
4
5
150
100
AcDbEntity
100
AcDbLine
10
22.436293
20
118.942884
30
0.0
11
25.094687
21
121.477426
31
0.0
0
LINE
8
SizingCircle
62
4
5
151
100
AcDbEntity
100
AcDbLine
10
25.094687
20
121.477426
30
0.0
11
27.872126
21
123.883304
31
0.0
0
LINE
8
SizingCircle
62
4
5
152
100
AcDbEntity
100
AcDbLine
10
27.872126
20
123.883304
30
0.0
11
30.763798
21
126.155711
31
0.0
0
LINE
8
SizingCircle
62
4
5
153
100
AcDbEntity
100
AcDbLine
10
30.763798
20
126.155711
30
0.0
11
33.764895
21
128.289836
31
0.0
0
LINE
8
SizingCircle
62
4
5
154
100
AcDbEntity
100
AcDbLine
10
33.764895
20
128.289836
30
0.0
11
36.870606
21
130.280870
31
0.0
0
LINE
8
SizingCircle
62
4
5
155
100
AcDbEntity
100
AcDbLine
10
36.870606
20
130.280870
30
0.0
11
40.076124
21
132.124003
31
0.0
0
LINE
8
SizingCircle
62
4
5
156
100
AcDbEntity
100
AcDbLine
10
40.076124
20
132.124003
30
0.0
11
43.376637
21
133.814425
31
0.0
0
LINE
8
SizingCircle
62
4
5
157
100
AcDbEntity
100
AcDbLine
10
43.376637
20
133.814425
30
0.0
11
46.767337
21
135.347328
31
0.0
0
LINE
8
SizingCircle
62
4
5
158
100
AcDbEntity
100
AcDbLine
10
46.767337
20
135.347328
30
0.0
11
50.243413
21
136.717902
31
0.0
0
LINE
8
SizingCircle
62
4
5
159
100
AcDbEntity
100
AcDbLine
10
50.243413
20
136.717902
30
0.0
11
53.800057
21
137.921336
31
0.0
0
LINE
8
SizingCircle
62
4
5
15a
100
AcDbEntity
100
AcDbLine
10
53.800057
20
137.921336
30
0.0
11
57.432459
21
138.952822
31
0.0
0
LINE
8
SizingCircle
62
4
5
15b
100
AcDbEntity
100
AcDbLine
10
57.432459
20
138.952822
30
0.0
11
61.135809
21
139.807551
31
0.0
0
LINE
8
SizingCircle
62
4
5
15c
100
AcDbEntity
100
AcDbLine
10
61.135809
20
139.807551
30
0.0
11
64.905298
21
140.480711
31
0.0
0
LINE
8
SizingCircle
62
4
5
15d
100
AcDbEntity
100
AcDbLine
10
64.905298
20
140.480711
30
0.0
11
68.736116
21
140.967495
31
0.0
0
LINE
8
SizingCircle
62
4
5
15e
100
AcDbEntity
100
AcDbLine
10
68.736116
20
140.967495
30
0.0
11
72.623454
21
141.263092
31
0.0
0
LINE
8
SizingCircle
62
4
5
15f
100
AcDbEntity
100
AcDbLine
10
72.623454
20
141.263092
30
0.0
11
76.562502
21
141.362694
31
0.0
0
LINE
8
SizingCircle
62
4
5
160
100
AcDbEntity
100
AcDbLine
10
76.562502
20
141.362694
30
0.0
11
80.501550
21
141.263092
31
0.0
0
LINE
8
SizingCircle
62
4
5
161
100
AcDbEntity
100
AcDbLine
10
80.501550
20
141.263092
30
0.0
11
84.388887
21
140.967495
31
0.0
0
LINE
8
SizingCircle
62
4
5
162
100
AcDbEntity
100
AcDbLine
10
84.388887
20
140.967495
30
0.0
11
88.219705
21
140.480711
31
0.0
0
LINE
8
SizingCircle
62
4
5
163
100
AcDbEntity
100
AcDbLine
10
88.219705
20
140.480711
30
0.0
11
91.989194
21
139.807551
31
0.0
0
LINE
8
SizingCircle
62
4
5
164
100
AcDbEntity
100
AcDbLine
10
91.989194
20
139.807551
30
0.0
11
95.692544
21
138.952822
31
0.0
0
LINE
8
SizingCircle
62
4
5
165
100
AcDbEntity
100
AcDbLine
10
95.692544
20
138.952822
30
0.0
11
99.324945
21
137.921336
31
0.0
0
LINE
8
SizingCircle
62
4
5
166
100
AcDbEntity
100
AcDbLine
10
99.324945
20
137.921336
30
0.0
11
102.881589
21
136.717902
31
0.0
0
LINE
8
SizingCircle
62
4
5
167
100
AcDbEntity
100
AcDbLine
10
102.881589
20
136.717902
30
0.0
11
106.357666
21
135.347328
31
0.0
0
LINE
8
SizingCircle
62
4
5
168
100
AcDbEntity
100
AcDbLine
10
106.357666
20
135.347328
30
0.0
11
109.748365
21
133.814425
31
0.0
0
LINE
8
SizingCircle
62
4
5
169
100
AcDbEntity
100
AcDbLine
10
109.748365
20
133.814425
30
0.0
11
113.048878
21
132.124003
31
0.0
0
LINE
8
SizingCircle
62
4
5
16a
100
AcDbEntity
100
AcDbLine
10
113.048878
20
132.124003
30
0.0
11
116.254396
21
130.280870
31
0.0
0
LINE
8
SizingCircle
62
4
5
16b
100
AcDbEntity
100
AcDbLine
10
116.254396
20
130.280870
30
0.0
11
119.360107
21
128.289836
31
0.0
0
LINE
8
SizingCircle
62
4
5
16c
100
AcDbEntity
100
AcDbLine
10
119.360107
20
128.289836
30
0.0
11
122.361204
21
126.155711
31
0.0
0
LINE
8
SizingCircle
62
4
5
16d
100
AcDbEntity
100
AcDbLine
10
122.361204
20
126.155711
30
0.0
11
125.252876
21
123.883304
31
0.0
0
LINE
8
SizingCircle
62
4
5
16e
100
AcDbEntity
100
AcDbLine
10
125.252876
20
123.883304
30
0.0
11
128.030314
21
121.477426
31
0.0
0
LINE
8
SizingCircle
62
4
5
16f
100
AcDbEntity
100
AcDbLine
10
128.030314
20
121.477426
30
0.0
11
130.688709
21
118.942884
31
0.0
0
LINE
8
SizingCircle
62
4
5
170
100
AcDbEntity
100
AcDbLine
10
130.688709
20
118.942884
30
0.0
11
133.223250
21
116.284490
31
0.0
0
LINE
8
SizingCircle
62
4
5
171
100
AcDbEntity
100
AcDbLine
10
133.223250
20
116.284490
30
0.0
11
135.629129
21
113.507051
31
0.0
0
LINE
8
SizingCircle
62
4
5
172
100
AcDbEntity
100
AcDbLine
10
135.629129
20
113.507051
30
0.0
11
137.901536
21
110.615379
31
0.0
0
LINE
8
SizingCircle
62
4
5
173
100
AcDbEntity
100
AcDbLine
10
137.901536
20
110.615379
30
0.0
11
140.035661
21
107.614282
31
0.0
0
LINE
8
SizingCircle
62
4
5
174
100
AcDbEntity
100
AcDbLine
10
140.035661
20
107.614282
30
0.0
11
142.026694
21
104.508571
31
0.0
0
LINE
8
SizingCircle
62
4
5
175
100
AcDbEntity
100
AcDbLine
10
142.026694
20
104.508571
30
0.0
11
143.869827
21
101.303053
31
0.0
0
LINE
8
SizingCircle
62
4
5
176
100
AcDbEntity
100
AcDbLine
10
143.869827
20
101.303053
30
0.0
11
145.560250
21
98.002540
31
0.0
0
LINE
8
SizingCircle
62
4
5
177
100
AcDbEntity
100
AcDbLine
10
145.560250
20
98.002540
30
0.0
11
147.093153
21
94.611841
31
0.0
0
LINE
8
SizingCircle
62
4
5
178
100
AcDbEntity
100
AcDbLine
10
147.093153
20
94.611841
30
0.0
11
148.463726
21
91.135764
31
0.0
0
LINE
8
SizingCircle
62
4
5
179
100
AcDbEntity
100
AcDbLine
10
148.463726
20
91.135764
30
0.0
11
149.667161
21
87.579120
31
0.0
0
LINE
8
SizingCircle
62
4
5
17a
100
AcDbEntity
100
AcDbLine
10
149.667161
20
87.579120
30
0.0
11
150.698647
21
83.946719
31
0.0
0
LINE
8
SizingCircle
62
4
5
17b
100
AcDbEntity
100
AcDbLine
10
150.698647
20
83.946719
30
0.0
11
151.553375
21
80.243369
31
0.0
0
LINE
8
SizingCircle
62
4
5
17c
100
AcDbEntity
100
AcDbLine
10
151.553375
20
80.243369
30
0.0
11
152.226536
21
76.473880
31
0.0
0
LINE
8
SizingCircle
62
4
5
17d
100
AcDbEntity
100
AcDbLine
10
152.226536
20
76.473880
30
0.0
11
152.713320
21
72.643062
31
0.0
0
LINE
8
SizingCircle
62
4
5
17e
100
AcDbEntity
100
AcDbLine
10
152.713320
20
72.643062
30
0.0
11
153.008917
21
68.755725
31
0.0
0
LINE
8
SizingCircle
62
4
5
17f
100
AcDbEntity
100
AcDbLine
10
153.008917
20
68.755725
30
0.0
11
153.108518
21
64.816677
31
0.0
0
LINE
8
SizingCircle
62
4
5
180
100
AcDbEntity
100
AcDbLine
10
153.108518
20
64.816677
30
0.0
11
153.108518
21
64.816677
31
0.0
0
LINE
8
WingsAndHTP
62
4
5
181
100
AcDbEntity
100
AcDbLine
10
100.903645
20
-14.775967
30
0.0
11
101.455388
21
-14.729363
31
0.0
0
LINE
8
WingsAndHTP
62
4
5
182
100
AcDbEntity
100
AcDbLine
10
101.455388
20
-14.729363
30
0.0
11
101.896631
21
-14.558982
31
0.0
0
LINE
8
WingsAndHTP
62
4
5
183
100
AcDbEntity
100
AcDbLine
10
101.896631
20
-14.558982
30
0.0
11
102.469714
21
-13.911360
31
0.0
0
LINE
8
WingsAndHTP
62
4
5
184
100
AcDbEntity
100
AcDbLine
10
102.469714
20
-13.911360
30
0.0
11
102.667086
21
-12.962041
31
0.0
0
LINE
8
WingsAndHTP
62
4
5
185
100
AcDbEntity
100
AcDbLine
10
102.667086
20
-12.962041
30
0.0
11
102.532937
21
-11.839966
31
0.0
0
LINE
8
WingsAndHTP
62
4
5
186
100
AcDbEntity
100
AcDbLine
10
102.532937
20
-11.839966
30
0.0
11
102.111459
21
-10.674074
31
0.0
0
LINE
8
WingsAndHTP
62
4
5
187
100
AcDbEntity
100
AcDbLine
10
102.111459
20
-10.674074
30
0.0
11
101.446843
21
-9.593307
31
0.0
0
LINE
8
WingsAndHTP
62
4
5
188
100
AcDbEntity
100
AcDbLine
10
101.446843
20
-9.593307
30
0.0
11
100.583282
21
-8.726603
31
0.0
0
LINE
8
WingsAndHTP
62
4
5
189
100
AcDbEntity
100
AcDbLine
10
100.583282
20
-8.726603
30
0.0
11
99.564966
21
-8.202905
31
0.0
0
LINE
8
WingsAndHTP
62
4
5
18a
100
AcDbEntity
100
AcDbLine
10
99.564966
20
-8.202905
30
0.0
11
78.701096
21
-2.494717
31
0.0
0
LINE
8
WingsAndHTP
62
4
5
18b
100
AcDbEntity
100
AcDbLine
10
78.701096
20
-2.494717
30
0.0
11
80.017211
21
42.930995
31
0.0
0
LINE
8
WingsAndHTP
62
4
5
18c
100
AcDbEntity
100
AcDbLine
10
80.017211
20
42.930995
30
0.0
11
80.156874
21
43.368967
31
0.0
0
LINE
8
WingsAndHTP
62
4
5
18d
100
AcDbEntity
100
AcDbLine
10
80.156874
20
43.368967
30
0.0
11
80.520967
21
43.775177
31
0.0
0
LINE
8
WingsAndHTP
62
4
5
18e
100
AcDbEntity
100
AcDbLine
10
80.520967
20
43.775177
30
0.0
11
81.839075
21
44.494248
31
0.0
0
LINE
8
WingsAndHTP
62
4
5
18f
100
AcDbEntity
100
AcDbLine
10
81.839075
20
44.494248
30
0.0
11
83.804797
21
45.092078
31
0.0
0
LINE
8
WingsAndHTP
62
4
5
190
100
AcDbEntity
100
AcDbLine
10
83.804797
20
45.092078
30
0.0
11
86.251396
21
45.572535
31
0.0
0
LINE
8
WingsAndHTP
62
4
5
191
100
AcDbEntity
100
AcDbLine
10
86.251396
20
45.572535
30
0.0
11
91.920277
21
46.196809
31
0.0
0
LINE
8
WingsAndHTP
62
4
5
192
100
AcDbEntity
100
AcDbLine
10
91.920277
20
46.196809
30
0.0
11
97.511822
21
46.398022
31
0.0
0
LINE
8
WingsAndHTP
62
4
5
193
100
AcDbEntity
100
AcDbLine
10
97.511822
20
46.398022
30
0.0
11
143.914343
21
46.398022
31
0.0
0
LINE
8
WingsAndHTP
62
4
5
194
100
AcDbEntity
100
AcDbLine
10
143.914343
20
46.398022
30
0.0
11
144.582737
21
46.482010
31
0.0
0
LINE
8
WingsAndHTP
62
4
5
195
100
AcDbEntity
100
AcDbLine
10
144.582737
20
46.482010
30
0.0
11
145.045165
21
46.720453
31
0.0
0
LINE
8
WingsAndHTP
62
4
5
196
100
AcDbEntity
100
AcDbLine
10
145.045165
20
46.720453
30
0.0
11
145.315449
21
47.093071
31
0.0
0
LINE
8
WingsAndHTP
62
4
5
197
100
AcDbEntity
100
AcDbLine
10
145.315449
20
47.093071
30
0.0
11
145.407416
21
47.579581
31
0.0
0
LINE
8
WingsAndHTP
62
4
5
198
100
AcDbEntity
100
AcDbLine
10
145.407416
20
47.579581
30
0.0
11
145.111699
21
48.813154
31
0.0
0
LINE
8
WingsAndHTP
62
4
5
199
100
AcDbEntity
100
AcDbLine
10
145.111699
20
48.813154
30
0.0
11
144.268612
21
50.258922
31
0.0
0
LINE
8
WingsAndHTP
62
4
5
19a
100
AcDbEntity
100
AcDbLine
10
144.268612
20
50.258922
30
0.0
11
142.988757
21
51.754635
31
0.0
0
LINE
8
WingsAndHTP
62
4
5
19b
100
AcDbEntity
100
AcDbLine
10
142.988757
20
51.754635
30
0.0
11
141.382734
21
53.138043
31
0.0
0
LINE
8
WingsAndHTP
62
4
5
19c
100
AcDbEntity
100
AcDbLine
10
141.382734
20
53.138043
30
0.0
11
139.561144
21
54.246895
31
0.0
0
LINE
8
WingsAndHTP
62
4
5
19d
100
AcDbEntity
100
AcDbLine
10
139.561144
20
54.246895
30
0.0
11
137.634588
21
54.918940
31
0.0
0
LINE
8
WingsAndHTP
62
4
5
19e
100
AcDbEntity
100
AcDbLine
10
137.634588
20
54.918940
30
0.0
11
76.569254
21
67.341375
31
0.0
0
LINE
8
WingsAndHTP
62
4
5
19f
100
AcDbEntity
100
AcDbLine
10
76.569254
20
67.341375
30
0.0
11
15.656880
21
54.918940
31
0.0
0
LINE
8
WingsAndHTP
62
4
5
1a0
100
AcDbEntity
100
AcDbLine
10
15.656880
20
54.918940
30
0.0
11
13.730323
21
54.246895
31
0.0
0
LINE
8
WingsAndHTP
62
4
5
1a1
100
AcDbEntity
100
AcDbLine
10
13.730323
20
54.246895
30
0.0
11
11.908732
21
53.138043
31
0.0
0
LINE
8
WingsAndHTP
62
4
5
1a2
100
AcDbEntity
100
AcDbLine
10
11.908732
20
53.138043
30
0.0
11
10.302709
21
51.754635
31
0.0
0
LINE
8
WingsAndHTP
62
4
5
1a3
100
AcDbEntity
100
AcDbLine
10
10.302709
20
51.754635
30
0.0
11
9.022854
21
50.258922
31
0.0
0
LINE
8
WingsAndHTP
62
4
5
1a4
100
AcDbEntity
100
AcDbLine
10
9.022854
20
50.258922
30
0.0
11
8.179767
21
48.813154
31
0.0
0
LINE
8
WingsAndHTP
62
4
5
1a5
100
AcDbEntity
100
AcDbLine
10
8.179767
20
48.813154
30
0.0
11
7.884049
21
47.579581
31
0.0
0
LINE
8
WingsAndHTP
62
4
5
1a6
100
AcDbEntity
100
AcDbLine
10
7.884049
20
47.579581
30
0.0
11
7.976016
21
47.093071
31
0.0
0
LINE
8
WingsAndHTP
62
4
5
1a7
100
AcDbEntity
100
AcDbLine
10
7.976016
20
47.093071
30
0.0
11
8.246300
21
46.720453
31
0.0
0
LINE
8
WingsAndHTP
62
4
5
1a8
100
AcDbEntity
100
AcDbLine
10
8.246300
20
46.720453
30
0.0
11
8.708728
21
46.482010
31
0.0
0
LINE
8
WingsAndHTP
62
4
5
1a9
100
AcDbEntity
100
AcDbLine
10
8.708728
20
46.482010
30
0.0
11
9.377122
21
46.398022
31
0.0
0
LINE
8
WingsAndHTP
62
4
5
1aa
100
AcDbEntity
100
AcDbLine
10
9.377122
20
46.398022
30
0.0
11
55.787157
21
46.398022
31
0.0
0
LINE
8
WingsAndHTP
62
4
5
1ab
100
AcDbEntity
100
AcDbLine
10
55.787157
20
46.398022
30
0.0
11
61.353631
21
46.196809
31
0.0
0
LINE
8
WingsAndHTP
62
4
5
1ac
100
AcDbEntity
100
AcDbLine
10
61.353631
20
46.196809
30
0.0
11
66.967348
21
45.572535
31
0.0
0
LINE
8
WingsAndHTP
62
4
5
1ad
100
AcDbEntity
100
AcDbLine
10
66.967348
20
45.572535
30
0.0
11
69.384483
21
45.092078
31
0.0
0
LINE
8
WingsAndHTP
62
4
5
1ae
100
AcDbEntity
100
AcDbLine
10
69.384483
20
45.092078
30
0.0
11
71.324503
21
44.494248
31
0.0
0
LINE
8
WingsAndHTP
62
4
5
1af
100
AcDbEntity
100
AcDbLine
10
71.324503
20
44.494248
30
0.0
11
72.624431
21
43.775177
31
0.0
0
LINE
8
WingsAndHTP
62
4
5
1b0
100
AcDbEntity
100
AcDbLine
10
72.624431
20
43.775177
30
0.0
11
72.983430
21
43.368967
31
0.0
0
LINE
8
WingsAndHTP
62
4
5
1b1
100
AcDbEntity
100
AcDbLine
10
72.983430
20
43.368967
30
0.0
11
73.121291
21
42.930995
31
0.0
0
LINE
8
WingsAndHTP
62
4
5
1b2
100
AcDbEntity
100
AcDbLine
10
73.121291
20
42.930995
30
0.0
11
74.437409
21
-2.494717
31
0.0
0
LINE
8
WingsAndHTP
62
4
5
1b3
100
AcDbEntity
100
AcDbLine
10
74.437409
20
-2.494717
30
0.0
11
53.726498
21
-8.202905
31
0.0
0
LINE
8
WingsAndHTP
62
4
5
1b4
100
AcDbEntity
100
AcDbLine
10
53.726498
20
-8.202905
30
0.0
11
52.708506
21
-8.726603
31
0.0
0
LINE
8
WingsAndHTP
62
4
5
1b5
100
AcDbEntity
100
AcDbLine
10
52.708506
20
-8.726603
30
0.0
11
51.845797
21
-9.593307
31
0.0
0
LINE
8
WingsAndHTP
62
4
5
1b6
100
AcDbEntity
100
AcDbLine
10
51.845797
20
-9.593307
30
0.0
11
51.182387
21
-10.674074
31
0.0
0
LINE
8
WingsAndHTP
62
4
5
1b7
100
AcDbEntity
100
AcDbLine
10
51.182387
20
-10.674074
30
0.0
11
50.762290
21
-11.839966
31
0.0
0
LINE
8
WingsAndHTP
62
4
5
1b8
100
AcDbEntity
100
AcDbLine
10
50.762290
20
-11.839966
30
0.0
11
50.629522
21
-12.962041
31
0.0
0
LINE
8
WingsAndHTP
62
4
5
1b9
100
AcDbEntity
100
AcDbLine
10
50.629522
20
-12.962041
30
0.0
11
50.828098
21
-13.911360
31
0.0
0
LINE
8
WingsAndHTP
62
4
5
1ba
100
AcDbEntity
100
AcDbLine
10
50.828098
20
-13.911360
30
0.0
11
51.402033
21
-14.558982
31
0.0
0
LINE
8
WingsAndHTP
62
4
5
1bb
100
AcDbEntity
100
AcDbLine
10
51.402033
20
-14.558982
30
0.0
11
51.843515
21
-14.729363
31
0.0
0
LINE
8
WingsAndHTP
62
4
5
1bc
100
AcDbEntity
100
AcDbLine
10
51.843515
20
-14.729363
30
0.0
11
52.395343
21
-14.775967
31
0.0
0
LINE
8
WingsAndHTP
62
4
5
1bd
100
AcDbEntity
100
AcDbLine
10
52.395343
20
-14.775967
30
0.0
11
76.569254
21
-13.849220
31
0.0
0
LINE
8
WingsAndHTP
62
4
5
1be
100
AcDbEntity
100
AcDbLine
10
76.569254
20
-13.849220
30
0.0
11
100.903645
21
-14.775967
31
0.0
0
LINE
8
WingReinforce
62
4
5
1bf
100
AcDbEntity
100
AcDbLine
10
97.511822
20
74.444945
30
0.0
11
120.713082
21
71.038356
31
0.0
0
LINE
8
WingReinforce
62
4
5
1c0
100
AcDbEntity
100
AcDbLine
10
120.713082
20
71.038356
30
0.0
11
132.313714
21
69.150394
31
0.0
0
LINE
8
WingReinforce
62
4
5
1c1
100
AcDbEntity
100
AcDbLine
10
132.313714
20
69.150394
30
0.0
11
136.053836
21
68.312597
31
0.0
0
LINE
8
WingReinforce
62
4
5
1c2
100
AcDbEntity
100
AcDbLine
10
136.053836
20
68.312597
30
0.0
11
138.889563
21
67.247090
31
0.0
0
LINE
8
WingReinforce
62
4
5
1c3
100
AcDbEntity
100
AcDbLine
10
138.889563
20
67.247090
30
0.0
11
140.945945
21
66.058487
31
0.0
0
LINE
8
WingReinforce
62
4
5
1c4
100
AcDbEntity
100
AcDbLine
10
140.945945
20
66.058487
30
0.0
11
142.348029
21
64.851403
31
0.0
0
LINE
8
WingReinforce
62
4
5
1c5
100
AcDbEntity
100
AcDbLine
10
142.348029
20
64.851403
30
0.0
11
143.220863
21
63.730453
31
0.0
0
LINE
8
WingReinforce
62
4
5
1c6
100
AcDbEntity
100
AcDbLine
10
143.220863
20
63.730453
30
0.0
11
143.689495
21
62.800250
31
0.0
0
LINE
8
WingReinforce
62
4
5
1c7
100
AcDbEntity
100
AcDbLine
10
143.689495
20
62.800250
30
0.0
11
143.914343
21
61.930551
31
0.0
0
LINE
8
WingReinforce
62
4
5
1c8
100
AcDbEntity
100
AcDbLine
10
143.914343
20
61.930551
30
0.0
11
144.563634
21
62.109516
31
0.0
0
LINE
8
WingReinforce
62
4
5
1c9
100
AcDbEntity
100
AcDbLine
10
144.563634
20
62.109516
30
0.0
11
145.011882
21
62.418453
31
0.0
0
LINE
8
WingReinforce
62
4
5
1ca
100
AcDbEntity
100
AcDbLine
10
145.011882
20
62.418453
30
0.0
11
145.272403
21
62.839614
31
0.0
0
LINE
8
WingReinforce
62
4
5
1cb
100
AcDbEntity
100
AcDbLine
10
145.272403
20
62.839614
30
0.0
11
145.358511
21
63.355250
31
0.0
0
LINE
8
WingReinforce
62
4
5
1cc
100
AcDbEntity
100
AcDbLine
10
145.358511
20
63.355250
30
0.0
11
145.060756
21
64.598954
31
0.0
0
LINE
8
WingReinforce
62
4
5
1cd
100
AcDbEntity
100
AcDbLine
10
145.060756
20
64.598954
30
0.0
11
144.225141
21
66.007577
31
0.0
0
LINE
8
WingReinforce
62
4
5
1ce
100
AcDbEntity
100
AcDbLine
10
144.225141
20
66.007577
30
0.0
11
142.958191
21
67.439128
31
0.0
0
LINE
8
WingReinforce
62
4
5
1cf
100
AcDbEntity
100
AcDbLine
10
142.958191
20
67.439128
30
0.0
11
141.366432
21
68.751620
31
0.0
0
LINE
8
WingReinforce
62
4
5
1d0
100
AcDbEntity
100
AcDbLine
10
141.366432
20
68.751620
30
0.0
11
139.556390
21
69.803063
31
0.0
0
LINE
8
WingReinforce
62
4
5
1d1
100
AcDbEntity
100
AcDbLine
10
139.556390
20
69.803063
30
0.0
11
137.634588
21
70.451469
31
0.0
0
LINE
8
WingReinforce
62
4
5
1d2
100
AcDbEntity
100
AcDbLine
10
137.634588
20
70.451469
30
0.0
11
76.569254
21
82.873906
31
0.0
0
LINE
8
WingReinforce
62
4
5
1d3
100
AcDbEntity
100
AcDbLine
10
76.569254
20
82.873906
30
0.0
11
15.656880
21
70.451469
31
0.0
0
LINE
8
WingReinforce
62
4
5
1d4
100
AcDbEntity
100
AcDbLine
10
15.656880
20
70.451469
30
0.0
11
13.733194
21
69.779967
31
0.0
0
LINE
8
WingReinforce
62
4
5
1d5
100
AcDbEntity
100
AcDbLine
10
13.733194
20
69.779967
30
0.0
11
11.918577
21
68.672433
31
0.0
0
LINE
8
WingReinforce
62
4
5
1d6
100
AcDbEntity
100
AcDbLine
10
11.918577
20
68.672433
30
0.0
11
10.321168
21
67.290653
31
0.0
0
LINE
8
WingReinforce
62
4
5
1d7
100
AcDbEntity
100
AcDbLine
10
10.321168
20
67.290653
30
0.0
11
9.049107
21
65.796413
31
0.0
0
LINE
8
WingReinforce
62
4
5
1d8
100
AcDbEntity
100
AcDbLine
10
9.049107
20
65.796413
30
0.0
11
8.210532
21
64.351497
31
0.0
0
LINE
8
WingReinforce
62
4
5
1d9
100
AcDbEntity
100
AcDbLine
10
8.210532
20
64.351497
30
0.0
11
7.913583
21
63.117691
31
0.0
0
LINE
8
WingReinforce
62
4
5
1da
100
AcDbEntity
100
AcDbLine
10
7.913583
20
63.117691
30
0.0
11
8.002013
21
62.630512
31
0.0
0
LINE
8
WingReinforce
62
4
5
1db
100
AcDbEntity
100
AcDbLine
10
8.002013
20
62.630512
30
0.0
11
8.266400
21
62.256780
31
0.0
0
LINE
8
WingReinforce
62
4
5
1dc
100
AcDbEntity
100
AcDbLine
10
8.266400
20
62.256780
30
0.0
11
8.720265
21
62.016719
31
0.0
0
LINE
8
WingReinforce
62
4
5
1dd
100
AcDbEntity
100
AcDbLine
10
8.720265
20
62.016719
30
0.0
11
9.377122
21
61.930551
31
0.0
0
LINE
8
WingReinforce
62
4
5
1de
100
AcDbEntity
100
AcDbLine
10
9.377122
20
61.930551
30
0.0
11
9.697638
21
62.815811
31
0.0
0
LINE
8
WingReinforce
62
4
5
1df
100
AcDbEntity
100
AcDbLine
10
9.697638
20
62.815811
30
0.0
11
10.250023
21
63.759630
31
0.0
0
LINE
8
WingReinforce
62
4
5
1e0
100
AcDbEntity
100
AcDbLine
10
10.250023
20
63.759630
30
0.0
11
11.198707
21
64.892899
31
0.0
0
LINE
8
WingReinforce
62
4
5
1e1
100
AcDbEntity
100
AcDbLine
10
11.198707
20
64.892899
30
0.0
11
12.644849
21
66.107116
31
0.0
0
LINE
8
WingReinforce
62
4
5
1e2
100
AcDbEntity
100
AcDbLine
10
12.644849
20
66.107116
30
0.0
11
14.689611
21
67.293774
31
0.0
0
LINE
8
WingReinforce
62
4
5
1e3
100
AcDbEntity
100
AcDbLine
10
14.689611
20
67.293774
30
0.0
11
17.434151
21
68.344368
31
0.0
0
LINE
8
WingReinforce
62
4
5
1e4
100
AcDbEntity
100
AcDbLine
10
17.434151
20
68.344368
30
0.0
11
20.979632
21
69.150394
31
0.0
0
LINE
8
WingReinforce
62
4
5
1e5
100
AcDbEntity
100
AcDbLine
10
20.979632
20
69.150394
30
0.0
11
32.582144
21
71.038356
31
0.0
0
LINE
8
WingReinforce
62
4
5
1e6
100
AcDbEntity
100
AcDbLine
10
32.582144
20
71.038356
30
0.0
11
55.787157
21
74.444945
31
0.0
0
LINE
8
WingReinforce
62
4
5
1e7
100
AcDbEntity
100
AcDbLine
10
55.787157
20
74.444945
30
0.0
11
59.076368
21
74.934094
31
0.0
0
LINE
8
WingReinforce
62
4
5
1e8
100
AcDbEntity
100
AcDbLine
10
59.076368
20
74.934094
30
0.0
11
62.169729
21
75.266270
31
0.0
0
LINE
8
WingReinforce
62
4
5
1e9
100
AcDbEntity
100
AcDbLine
10
62.169729
20
75.266270
30
0.0
11
65.023558
21
75.223886
31
0.0
0
LINE
8
WingReinforce
62
4
5
1ea
100
AcDbEntity
100
AcDbLine
10
65.023558
20
75.223886
30
0.0
11
66.346999
21
74.994240
31
0.0
0
LINE
8
WingReinforce
62
4
5
1eb
100
AcDbEntity
100
AcDbLine
10
66.346999
20
74.994240
30
0.0
11
67.594176
21
74.589359
31
0.0
0
LINE
8
WingReinforce
62
4
5
1ec
100
AcDbEntity
100
AcDbLine
10
67.594176
20
74.589359
30
0.0
11
68.759631
21
73.982045
31
0.0
0
LINE
8
WingReinforce
62
4
5
1ed
100
AcDbEntity
100
AcDbLine
10
68.759631
20
73.982045
30
0.0
11
69.837903
21
73.145101
31
0.0
0
LINE
8
WingReinforce
62
4
5
1ee
100
AcDbEntity
100
AcDbLine
10
69.837903
20
73.145101
30
0.0
11
70.823531
21
72.051328
31
0.0
0
LINE
8
WingReinforce
62
4
5
1ef
100
AcDbEntity
100
AcDbLine
10
70.823531
20
72.051328
30
0.0
11
71.711057
21
70.673528
31
0.0
0
LINE
8
WingReinforce
62
4
5
1f0
100
AcDbEntity
100
AcDbLine
10
71.711057
20
70.673528
30
0.0
11
72.495019
21
68.984503
31
0.0
0
LINE
8
WingReinforce
62
4
5
1f1
100
AcDbEntity
100
AcDbLine
10
72.495019
20
68.984503
30
0.0
11
73.169958
21
66.957055
31
0.0
0
LINE
8
WingReinforce
62
4
5
1f2
100
AcDbEntity
100
AcDbLine
10
73.169958
20
66.957055
30
0.0
11
73.730414
21
64.563984
31
0.0
0
LINE
8
WingReinforce
62
4
5
1f3
100
AcDbEntity
100
AcDbLine
10
73.730414
20
64.563984
30
0.0
11
74.170927
21
61.778094
31
0.0
0
LINE
8
WingReinforce
62
4
5
1f4
100
AcDbEntity
100
AcDbLine
10
74.170927
20
61.778094
30
0.0
11
74.818535
21
54.642388
31
0.0
0
LINE
8
WingReinforce
62
4
5
1f5
100
AcDbEntity
100
AcDbLine
10
74.818535
20
54.642388
30
0.0
11
75.278799
21
45.755964
31
0.0
0
LINE
8
WingReinforce
62
4
5
1f6
100
AcDbEntity
100
AcDbLine
10
75.278799
20
45.755964
30
0.0
11
75.831222
21
26.062374
31
0.0
0
LINE
8
WingReinforce
62
4
5
1f7
100
AcDbEntity
100
AcDbLine
10
75.831222
20
26.062374
30
0.0
11
76.216066
21
9.360150
31
0.0
0
LINE
8
WingReinforce
62
4
5
1f8
100
AcDbEntity
100
AcDbLine
10
76.216066
20
9.360150
30
0.0
11
76.466855
21
4.212932
31
0.0
0
LINE
8
WingReinforce
62
4
5
1f9
100
AcDbEntity
100
AcDbLine
10
76.466855
20
4.212932
30
0.0
11
76.628052
21
2.804670
31
0.0
0
LINE
8
WingReinforce
62
4
5
1fa
100
AcDbEntity
100
AcDbLine
10
76.628052
20
2.804670
30
0.0
11
76.821199
21
2.312114
31
0.0
0
LINE
8
WingReinforce
62
4
5
1fb
100
AcDbEntity
100
AcDbLine
10
76.821199
20
2.312114
30
0.0
11
77.002435
21
2.804652
31
0.0
0
LINE
8
WingReinforce
62
4
5
1fc
100
AcDbEntity
100
AcDbLine
10
77.002435
20
2.804652
30
0.0
11
77.130295
21
4.212867
31
0.0
0
LINE
8
WingReinforce
62
4
5
1fd
100
AcDbEntity
100
AcDbLine
10
77.130295
20
4.212867
30
0.0
11
77.264500
21
9.359927
31
0.0
0
LINE
8
WingReinforce
62
4
5
1fe
100
AcDbEntity
100
AcDbLine
10
77.264500
20
9.359927
30
0.0
11
77.317172
21
26.061781
31
0.0
0
LINE
8
WingReinforce
62
4
5
1ff
100
AcDbEntity
100
AcDbLine
10
77.317172
20
26.061781
30
0.0
11
77.390103
21
35.950979
31
0.0
0
LINE
8
WingReinforce
62
4
5
200
100
AcDbEntity
100
AcDbLine
10
77.390103
20
35.950979
30
0.0
11
77.597075
21
45.755296
31
0.0
0
LINE
8
WingReinforce
62
4
5
201
100
AcDbEntity
100
AcDbLine
10
77.597075
20
45.755296
30
0.0
11
78.015320
21
54.641934
31
0.0
0
LINE
8
WingReinforce
62
4
5
202
100
AcDbEntity
100
AcDbLine
10
78.015320
20
54.641934
30
0.0
11
78.722070
21
61.778094
31
0.0
0
LINE
8
WingReinforce
62
4
5
203
100
AcDbEntity
100
AcDbLine
10
78.722070
20
61.778094
30
0.0
11
79.203927
21
64.566543
31
0.0
0
LINE
8
WingReinforce
62
4
5
204
100
AcDbEntity
100
AcDbLine
10
79.203927
20
64.566543
30
0.0
11
79.773420
21
66.966091
31
0.0
0
LINE
8
WingReinforce
62
4
5
205
100
AcDbEntity
100
AcDbLine
10
79.773420
20
66.966091
30
0.0
11
80.431555
21
69.003024
31
0.0
0
LINE
8
WingReinforce
62
4
5
206
100
AcDbEntity
100
AcDbLine
10
80.431555
20
69.003024
30
0.0
11
81.179341
21
70.703625
31
0.0
0
LINE
8
WingReinforce
62
4
5
207
100
AcDbEntity
100
AcDbLine
10
81.179341
20
70.703625
30
0.0
11
82.017782
21
72.094182
31
0.0
0
LINE
8
WingReinforce
62
4
5
208
100
AcDbEntity
100
AcDbLine
10
82.017782
20
72.094182
30
0.0
11
82.947886
21
73.200980
31
0.0
0
LINE
8
WingReinforce
62
4
5
209
100
AcDbEntity
100
AcDbLine
10
82.947886
20
73.200980
30
0.0
11
83.970659
21
74.050303
31
0.0
0
LINE
8
WingReinforce
62
4
5
20a
100
AcDbEntity
100
AcDbLine
10
83.970659
20
74.050303
30
0.0
11
85.087108
21
74.668436
31
0.0
0
LINE
8
WingReinforce
62
4
5
20b
100
AcDbEntity
100
AcDbLine
10
85.087108
20
74.668436
30
0.0
11
86.298240
21
75.081667
31
0.0
0
LINE
8
WingReinforce
62
4
5
20c
100
AcDbEntity
100
AcDbLine
10
86.298240
20
75.081667
30
0.0
11
87.605060
21
75.316279
31
0.0
0
LINE
8
WingReinforce
62
4
5
20d
100
AcDbEntity
100
AcDbLine
10
87.605060
20
75.316279
30
0.0
11
90.509795
21
75.354789
31
0.0
0
LINE
8
WingReinforce
62
4
5
20e
100
AcDbEntity
100
AcDbLine
10
90.509795
20
75.354789
30
0.0
11
93.809365
21
74.994250
31
0.0
0
LINE
8
WingReinforce
62
4
5
20f
100
AcDbEntity
100
AcDbLine
10
93.809365
20
74.994250
30
0.0
11
97.511822
21
74.444945
31
0.0
0
LINE
8
WingReinforce
62
4
5
210
100
AcDbEntity
100
AcDbLine
10
97.511822
20
74.444945
30
0.0
11
97.511822
21
74.444945
31
0.0
0
LINE
8
Fuselage
62
4
5
211
100
AcDbEntity
100
AcDbLine
10
76.514754
20
135.155708
30
0.0
11
76.900453
21
135.062743
31
0.0
0
LINE
8
Fuselage
62
4
5
212
100
AcDbEntity
100
AcDbLine
10
76.900453
20
135.062743
30
0.0
11
77.308489
21
134.775455
31
0.0
0
LINE
8
Fuselage
62
4
5
213
100
AcDbEntity
100
AcDbLine
10
77.308489
20
134.775455
30
0.0
11
78.165498
21
133.687194
31
0.0
0
LINE
8
Fuselage
62
4
5
214
100
AcDbEntity
100
AcDbLine
10
78.165498
20
133.687194
30
0.0
11
79.033636
21
132.029497
31
0.0
0
LINE
8
Fuselage
62
4
5
215
100
AcDbEntity
100
AcDbLine
10
79.033636
20
132.029497
30
0.0
11
79.860761
21
129.940932
31
0.0
0
LINE
8
Fuselage
62
4
5
216
100
AcDbEntity
100
AcDbLine
10
79.860761
20
129.940932
30
0.0
11
80.594729
21
127.560071
31
0.0
0
LINE
8
Fuselage
62
4
5
217
100
AcDbEntity
100
AcDbLine
10
80.594729
20
127.560071
30
0.0
11
81.183397
21
125.025483
31
0.0
0
LINE
8
Fuselage
62
4
5
218
100
AcDbEntity
100
AcDbLine
10
81.183397
20
125.025483
30
0.0
11
81.574620
21
122.475739
31
0.0
0
LINE
8
Fuselage
62
4
5
219
100
AcDbEntity
100
AcDbLine
10
81.574620
20
122.475739
30
0.0
11
81.716256
21
120.049409
31
0.0
0
LINE
8
Fuselage
62
4
5
21a
100
AcDbEntity
100
AcDbLine
10
81.716256
20
120.049409
30
0.0
11
81.612878
21
102.709049
31
0.0
0
LINE
8
Fuselage
62
4
5
21b
100
AcDbEntity
100
AcDbLine
10
81.612878
20
102.709049
30
0.0
11
81.274780
21
94.036359
31
0.0
0
LINE
8
Fuselage
62
4
5
21c
100
AcDbEntity
100
AcDbLine
10
81.274780
20
94.036359
30
0.0
11
80.557254
21
85.259723
31
0.0
0
LINE
8
Fuselage
62
4
5
21d
100
AcDbEntity
100
AcDbLine
10
80.557254
20
85.259723
30
0.0
11
79.596955
21
78.886357
31
0.0
0
LINE
8
Fuselage
62
4
5
21e
100
AcDbEntity
100
AcDbLine
10
79.596955
20
78.886357
30
0.0
11
78.243863
21
71.911882
31
0.0
0
LINE
8
Fuselage
62
4
5
21f
100
AcDbEntity
100
AcDbLine
10
78.243863
20
71.911882
30
0.0
11
76.514754
21
63.984756
31
0.0
0
LINE
8
Fuselage
62
4
5
220
100
AcDbEntity
100
AcDbLine
10
76.514754
20
63.984756
30
0.0
11
76.514754
21
135.155708
31
0.0
0
LINE
8
Spine
62
4
5
221
100
AcDbEntity
100
AcDbLine
10
76.558981
20
127.297590
30
0.0
11
83.786526
21
132.753371
31
0.0
0
LINE
8
Spine
62
4
5
222
100
AcDbEntity
100
AcDbLine
10
83.786526
20
132.753371
30
0.0
11
84.666359
21
62.142339
31
0.0
0
LINE
8
Spine
62
4
5
223
100
AcDbEntity
100
AcDbLine
10
84.666359
20
62.142339
30
0.0
11
84.428638
21
56.883011
31
0.0
0
LINE
8
Spine
62
4
5
224
100
AcDbEntity
100
AcDbLine
10
84.428638
20
56.883011
30
0.0
11
83.809227
21
49.968445
31
0.0
0
LINE
8
Spine
62
4
5
225
100
AcDbEntity
100
AcDbLine
10
83.809227
20
49.968445
30
0.0
11
81.914563
21
33.026402
31
0.0
0
LINE
8
Spine
62
4
5
226
100
AcDbEntity
100
AcDbLine
10
81.914563
20
33.026402
30
0.0
11
79.960819
21
15.021816
31
0.0
0
LINE
8
Spine
62
4
5
227
100
AcDbEntity
100
AcDbLine
10
79.960819
20
15.021816
30
0.0
11
79.267561
21
6.779071
31
0.0
0
LINE
8
Spine
62
4
5
228
100
AcDbEntity
100
AcDbLine
10
79.267561
20
6.779071
30
0.0
11
78.926453
21
-0.339708
31
0.0
0
LINE
8
Spine
62
4
5
229
100
AcDbEntity
100
AcDbLine
10
78.926453
20
-0.339708
30
0.0
11
76.558981
21
-1.415466
31
0.0
0
LINE
8
Spine
62
4
5
22a
100
AcDbEntity
100
AcDbLine
10
76.558981
20
-1.415466
30
0.0
11
76.558981
21
127.297590
31
0.0
0
LINE
8
LauncherSlot
62
4
5
22b
100
AcDbEntity
100
AcDbLine
10
76.499999
20
137.296842
30
0.0
11
76.794639
21
137.442023
31
0.0
0
LINE
8
LauncherSlot
62
4
5
22c
100
AcDbEntity
100
AcDbLine
10
76.794639
20
137.442023
30
0.0
11
77.501114
21
137.633913
31
0.0
0
LINE
8
LauncherSlot
62
4
5
22d
100
AcDbEntity
100
AcDbLine
10
77.501114
20
137.633913
30
0.0
11
78.353257
21
137.507030
31
0.0
0
LINE
8
LauncherSlot
62
4
5
22e
100
AcDbEntity
100
AcDbLine
10
78.353257
20
137.507030
30
0.0
11
78.750778
21
137.209836
31
0.0
0
LINE
8
LauncherSlot
62
4
5
22f
100
AcDbEntity
100
AcDbLine
10
78.750778
20
137.209836
30
0.0
11
79.084904
21
136.695893
31
0.0
0
LINE
8
LauncherSlot
62
4
5
230
100
AcDbEntity
100
AcDbLine
10
79.084904
20
136.695893
30
0.0
11
79.196889
21
135.675837
31
0.0
0
LINE
8
LauncherSlot
62
4
5
231
100
AcDbEntity
100
AcDbLine
10
79.196889
20
135.675837
30
0.0
11
79.008768
21
134.044348
31
0.0
0
LINE
8
LauncherSlot
62
4
5
232
100
AcDbEntity
100
AcDbLine
10
79.008768
20
134.044348
30
0.0
11
78.083790
21
129.868570
31
0.0
0
LINE
8
LauncherSlot
62
4
5
233
100
AcDbEntity
100
AcDbLine
10
78.083790
20
129.868570
30
0.0
11
76.499999
21
124.316340
31
0.0
0
LINE
8
LauncherSlot
62
4
5
234
100
AcDbEntity
100
AcDbLine
10
76.499999
20
124.316340
30
0.0
11
76.499999
21
137.296842
31
0.0
0
LINE
8
VTP
62
4
5
235
100
AcDbEntity
100
AcDbLine
10
77.177739
20
20.894909
30
0.0
11
99.043129
21
8.719515
31
0.0
0
LINE
8
VTP
62
4
5
236
100
AcDbEntity
100
AcDbLine
10
99.043129
20
8.719515
30
0.0
11
100.737150
21
7.479675
31
0.0
0
LINE
8
VTP
62
4
5
237
100
AcDbEntity
100
AcDbLine
10
100.737150
20
7.479675
30
0.0
11
102.122955
21
5.911212
31
0.0
0
LINE
8
VTP
62
4
5
238
100
AcDbEntity
100
AcDbLine
10
102.122955
20
5.911212
30
0.0
11
103.161194
21
4.175325
31
0.0
0
LINE
8
VTP
62
4
5
239
100
AcDbEntity
100
AcDbLine
10
103.161194
20
4.175325
30
0.0
11
103.812514
21
2.433211
31
0.0
0
LINE
8
VTP
62
4
5
23a
100
AcDbEntity
100
AcDbLine
10
103.812514
20
2.433211
30
0.0
11
104.037564
21
0.846069
31
0.0
0
LINE
8
VTP
62
4
5
23b
100
AcDbEntity
100
AcDbLine
10
104.037564
20
0.846069
30
0.0
11
103.796995
21
-0.424902
31
0.0
0
LINE
8
VTP
62
4
5
23c
100
AcDbEntity
100
AcDbLine
10
103.796995
20
-0.424902
30
0.0
11
103.489806
21
-0.891449
31
0.0
0
LINE
8
VTP
62
4
5
23d
100
AcDbEntity
100
AcDbLine
10
103.489806
20
-0.891449
30
0.0
11
103.051455
21
-1.218504
31
0.0
0
LINE
8
VTP
62
4
5
23e
100
AcDbEntity
100
AcDbLine
10
103.051455
20
-1.218504
30
0.0
11
102.477023
21
-1.385917
31
0.0
0
LINE
8
VTP
62
4
5
23f
100
AcDbEntity
100
AcDbLine
10
102.477023
20
-1.385917
30
0.0
11
101.761592
21
-1.373539
31
0.0
0
LINE
8
VTP
62
4
5
240
100
AcDbEntity
100
AcDbLine
10
101.761592
20
-1.373539
30
0.0
11
77.177739
21
2.028605
31
0.0
0
LINE
8
VTP
62
4
5
241
100
AcDbEntity
100
AcDbLine
10
77.177739
20
2.028605
30
0.0
11
77.177739
21
20.894909
31
0.0
  0
ENDSEC
  0
SECTION
  2
OBJECTS
  0
DICTIONARY
  5
C
330
0
100
AcDbDictionary
  3
ACAD_GROUP
350
D
  3
ACAD_MLINESTYLE
350
17
  0
DICTIONARY
  5
D
330
C
100
AcDbDictionary
  0
DICTIONARY
  5
1A
330
C
100
AcDbDictionary
  0
DICTIONARY
  5
17
330
C
100
AcDbDictionary
  3
STANDARD
350
18
  0
DICTIONARY
  5
19
330
C
100
AcDbDictionary
  0
ENDSEC
  0
EOF
